<svg id="Layer_1" data-name="Layer 1" xmlns="http://www.w3.org/2000/svg" viewBox="0 0 53.48 17.07"><defs><style>.cls-1{fill:#fff;}</style></defs><path class="cls-1" d="M7.71,17.76a.35.35,0,0,0,0,.14v.21s0,.06.07.07a1.24,1.24,0,0,1,.46.13,2.09,2.09,0,0,1,.36.26l.16.18a.07.07,0,0,0,.12,0s0-.81,0-.91a.68.68,0,0,0-.55-.62H6.15l-.92.71a.08.08,0,0,0,0,.12l0,0h0a.36.36,0,0,1,.1.11.33.33,0,0,1,.05.19V23.6a.33.33,0,0,1-.05.19.36.36,0,0,1-.1.11h0l0,0a.07.07,0,0,0,0,.12l1.59,1L7,25.1l0,0a7.61,7.61,0,0,1,.62-.45,6.49,6.49,0,0,1,.66-.37A4.71,4.71,0,0,1,9,24a.07.07,0,0,0,0-.12H9a.36.36,0,0,1-.1-.11.34.34,0,0,1,0-.19V23a.07.07,0,0,0-.13,0,1.09,1.09,0,0,1-.13.17,1.32,1.32,0,0,1-.36.28,1,1,0,0,1-.48.13.07.07,0,0,0-.07.07v.56a.06.06,0,0,1-.1,0L7,23.89a.05.05,0,0,1,0-.05V20.9a.07.07,0,0,1,.12,0l.26.31.37.39a.07.07,0,0,0,.12,0A1.51,1.51,0,0,1,8,21.17a3.15,3.15,0,0,1,.24-.38,1.61,1.61,0,0,1,.24-.28.07.07,0,0,0,0-.11l-.93-.53a.08.08,0,0,0-.09,0l-.33.4a.07.07,0,0,1-.12,0V17.71s0-.07.06-.07h.59a.07.07,0,0,1,.06.1Zm-.83,6-.13-.1a.31.31,0,0,1-.14-.25V18.08a1.77,1.77,0,0,1,0-.24.64.64,0,0,1,0-.2h.23Z" transform="translate(-3.09 -12.6)"/><path class="cls-1" d="M14.21,19v-1a1.41,1.41,0,0,1,.09-.57,1.65,1.65,0,0,1,.15-.26l.05-.07H12.75l.05.07a1.65,1.65,0,0,1,.15.26,1.41,1.41,0,0,1,.09.57v5.79c0,.15,0,.25,0,.28l0,.13-.63-.41V17.18h-.66c-.74,0-.91.55-.91,1.17V23.6a.27.27,0,0,1-.05.19.4.4,0,0,1-.1.12.61.61,0,0,1-.14.07l1.89,1.15a6.19,6.19,0,0,1,.62-.45,6.49,6.49,0,0,1,.66-.37,5.28,5.28,0,0,1,.81-.33l-.15-.07a.38.38,0,0,1-.09-.12.33.33,0,0,1-.05-.19V20C14.2,19.64,14.2,19.32,14.21,19Zm-2,4.76-.14-.08a.36.36,0,0,1-.13-.25V18.08a1,1,0,0,1,.1-.52,1.52,1.52,0,0,1,.17-.25Z" transform="translate(-3.09 -12.6)"/><rect class="cls-1" y="1.22" width="13.55" height="0.73" rx="0.19"/><rect class="cls-1" x="0.91" width="11.73" height="0.73" rx="0.19"/><rect class="cls-1" x="0.91" y="2.48" width="11.73" height="0.73" rx="0.19"/><path class="cls-1" d="M5,25.64a.09.09,0,0,0,.1.09H9.74a.22.22,0,0,0,.16,0h4.81a.09.09,0,0,0,.09-.09.1.1,0,0,0-.09-.1H11.4a1.42,1.42,0,0,1-.73-.34,1.4,1.4,0,0,1-.38-.83V18.09a2,2,0,0,1,.17-.87,1,1,0,0,1,.87-.59h3.31a.09.09,0,1,0,0-.18H10a.15.15,0,0,0-.16,0H5a.09.09,0,1,0,0,.18H8.34a1.55,1.55,0,0,1,.73.34,1.4,1.4,0,0,1,.39.78h0v.46h0v6.49a1.12,1.12,0,0,1-.32.48,1.4,1.4,0,0,1-.72.34H5.1A.1.1,0,0,0,5,25.64Z" transform="translate(-3.09 -12.6)"/><rect class="cls-1" y="15.12" width="13.55" height="0.73" rx="0.19"/><rect class="cls-1" x="0.91" y="16.34" width="11.73" height="0.73" rx="0.19"/><rect class="cls-1" x="0.91" y="13.86" width="11.73" height="0.73" rx="0.19"/><path class="cls-1" d="M20,21.23V17.49h3.41v.91H21.23v.48h2v.91h-2v.53h2.23v.91Z" transform="translate(-3.09 -12.6)"/><path class="cls-1" d="M27.09,21.23l-.71-1.44h-.51l-.71,1.44H23.85l.95-1.91-.86-1.83h1.29l.62,1.33h.55L27,17.49h1.28l-.87,1.84.95,1.9Z" transform="translate(-3.09 -12.6)"/><path class="cls-1" d="M28.82,21.23V17.49h3.42v.91H30v.48h2v.91H30v.53h2.23v.91Z" transform="translate(-3.09 -12.6)"/><path class="cls-1" d="M32.63,19.35c0-1.33.78-2,2.41-2,1.42,0,2.2.56,2.3,1.65H36.13c-.05-.49-.41-.68-1.09-.68-.85,0-1.19.28-1.19,1s.33,1,1.17,1,1.1-.27,1.13-.8h1.22c-.09,1.17-.89,1.77-2.35,1.77C33.39,21.33,32.63,20.7,32.63,19.35Z" transform="translate(-3.09 -12.6)"/><path class="cls-1" d="M37.78,19.88V17.49H39v2.39c0,.31.26.48.79.48s.77-.17.77-.48V17.49h1.22v2.39c0,1-.64,1.45-2,1.45S37.78,20.87,37.78,19.88Z" transform="translate(-3.09 -12.6)"/><path class="cls-1" d="M43.56,21.23V18.45H42.15v-1H46.2v1H44.79v2.78Z" transform="translate(-3.09 -12.6)"/><path class="cls-1" d="M46.64,21.23V17.49h1.23v3.74Z" transform="translate(-3.09 -12.6)"/><path class="cls-1" d="M51.47,17.49h1.22l-1.11,3.74H49.42l-1.11-3.74h1.22l.82,2.77h.3Z" transform="translate(-3.09 -12.6)"/><path class="cls-1" d="M53.12,21.23V17.49h3.41v.91H54.34v.48h2v.91h-2v.53h2.23v.91Z" transform="translate(-3.09 -12.6)"/><path class="cls-1" d="M23.48,21.72h.69l-1.3,3.72H21.46l-1.32-3.72h.7L22,24.87h.37Z" transform="translate(-3.09 -12.6)"/><path class="cls-1" d="M24.71,25.44V21.72h.67v3.72Z" transform="translate(-3.09 -12.6)"/><path class="cls-1" d="M26.22,25.44V21.72h.67v3.15H29v.57Z" transform="translate(-3.09 -12.6)"/><path class="cls-1" d="M29.64,25.44V21.72h.67v3.15h2.13v.57Z" transform="translate(-3.09 -12.6)"/><path class="cls-1" d="M36.33,25.44,36,24.5H33.86l-.33.94h-.69l1.31-3.72h1.57L37,25.44Zm-2.27-1.52H35.8l-.57-1.62h-.59Z" transform="translate(-3.09 -12.6)"/><rect class="cls-1" x="15.02" y="0.77" width="0.42" height="15.53"/></svg>