<svg id="Layer_1" data-name="Layer 1" xmlns="http://www.w3.org/2000/svg" width="17.3" height="14.5" viewBox="0 0 17.3 14.5"><defs><style>.cls-1{fill:#fff;}</style></defs><path class="cls-1" d="M24.7,21.7v-.5h.1V12h-.1v-.4h1.7v.4h-.1v9.2h.1v.5Z" transform="translate(-24.3 -11.1)"/><path class="cls-1" d="M30.1,21.7v-.5h.1V12h-.1v-.4h3.7v1a1.5,1.5,0,0,0-.5,1.1v.3h.2a.2.2,0,0,1,.2.2c0,.2-.1.3-.2.3h-.1a1.3,1.3,0,0,1-.9-1.3c0-.2.1-.3.1-.5h-1v3.7h.5c-.1,0-.1-.1-.1-.2a.3.3,0,0,1,.3-.3.3.3,0,0,1,.3.3h-.1a1.1,1.1,0,0,1-.9.9v4.2h.1v.5Z" transform="translate(-24.3 -11.1)"/><path class="cls-1" d="M37.5,21.7v-.5h.1V12h-.1v-.4h3.8v1a1.5,1.5,0,0,0-.5,1.1v.3H41l.3.2a.3.3,0,0,1-.3.3h-.1a1.2,1.2,0,0,1-.8-1.3v-.5h-1v3.7h.5c-.1,0-.1-.1-.1-.2a.3.3,0,1,1,.6,0h0a1.2,1.2,0,0,1-1,.9v3.7h1v-.5c0-1.2.8-1.3.8-1.3H41c.1,0,.3.1.3.2a.3.3,0,0,1-.3.3h-.2c0,.1-.1.2-.1.3a1.4,1.4,0,0,0,.6,1.1h0v1Z" transform="translate(-24.3 -11.1)"/><path class="cls-1" d="M26.4,22H24.7c-.2,0-.4-.1-.4-.3v-.5a.2.2,0,0,1,.2-.2V12.2l-.2-.3v-.4a.4.4,0,0,1,.4-.4h1.7c.2,0,.3.2.3.4v.4a.4.4,0,0,1-.1.3v9.5A.3.3,0,0,1,26.4,22ZM24.7,11.2a.3.3,0,0,0-.3.3v.4c0,.1,0,.2.1.2h0V21h0v.7c0,.1.1.2.3.2h1.7a.2.2,0,0,0,.2-.2V21h0V12.1h0c.1,0,.1-.1.1-.2v-.4c0-.2-.1-.3-.2-.3Z" transform="translate(-24.3 -11.1)"/><path class="cls-1" d="M31.8,22H30.1a.3.3,0,0,1-.3-.3v-.5c0-.1,0-.2.1-.2V12.2a.4.4,0,0,1-.1-.3v-.4c0-.2.1-.4.3-.4h3.7a.4.4,0,0,1,.4.4v1l-.2.2a1.1,1.1,0,0,0-.3.7c.2.1.5.3.5.6a.6.6,0,0,1-.6.6h-.2l-.6-.3a1.8,1.8,0,0,1-.5-1.3v-.2H32v2.7h.4a.6.6,0,0,1,.6.6c0,.1,0,.1-.1.2a1.1,1.1,0,0,1-.9,1V21a.2.2,0,0,1,.2.2v.5C32.2,21.9,32,22,31.8,22ZM30.1,11.2a.3.3,0,0,0-.3.3v.6h0V21h0a.3.3,0,0,1-.1.2v.5c0,.1.1.2.3.2h1.7c.2,0,.3-.1.3-.2v-.5A.3.3,0,0,1,32,21h0V17.2h0a1.7,1.7,0,0,0,.9-1h0V16a.6.6,0,0,0-.5-.6H32V12.7h.4V13a1.5,1.5,0,0,0,.5,1.2l.5.3h.2a.5.5,0,0,0,.5-.5.5.5,0,0,0-.5-.5h0a1.1,1.1,0,0,1,.4-.8V11.5a.3.3,0,0,0-.3-.3Z" transform="translate(-24.3 -11.1)"/><path class="cls-1" d="M41.3,22H37.5a.3.3,0,0,1-.3-.3V12.2a.4.4,0,0,1-.1-.3v-.4c0-.2.1-.4.3-.4h3.8c.2,0,.3.2.3.4v1.2a1.7,1.7,0,0,0-.4.7.6.6,0,0,1,.5.6.6.6,0,0,1-.6.6h-.2l-.5-.3a1.4,1.4,0,0,1-.5-1.3v-.2h-.3v2.7h.3a.6.6,0,0,1,.6.6v.2a1.4,1.4,0,0,1-.9,1v3.2h.3c0-.1-.1-.1-.1-.2a1.5,1.5,0,0,1,.6-1.3l.5-.3H41a.6.6,0,0,1,.6.6.6.6,0,0,1-.5.6.9.9,0,0,0,.3.7l.2.3v1A.3.3,0,0,1,41.3,22ZM37.5,11.2c-.1,0-.2.1-.2.3v.4c0,.1,0,.2.1.2h0V21h0v.7a.2.2,0,0,0,.2.2h3.8a.2.2,0,0,0,.2-.2v-1c0-.1,0-.2-.1-.2h0a1.2,1.2,0,0,1-.4-.8h0a.5.5,0,0,0,0-1h-.2a.6.6,0,0,0-.5.2,1.8,1.8,0,0,0-.5,1.3v.2h-.4V17.2h0a1.2,1.2,0,0,0,.9-1h0V16a.6.6,0,0,0-.5-.6l-.4.2h0V12.7h.4V13a1.5,1.5,0,0,0,.5,1.2l.5.3H41a.5.5,0,0,0,.5-.5c0-.2-.2-.5-.4-.5H41a1.7,1.7,0,0,1,.4-.8h0V11.5c0-.2-.1-.3-.2-.3Z" transform="translate(-24.3 -11.1)"/><rect class="cls-1" y="14.2" width="17.2" height="0.31"/><rect class="cls-1" y="11.8" width="17.2" height="0.31"/><path class="cls-1" d="M25.9,25h-.6c-.1-.2-.2-.3-.2-.5a.8.8,0,0,1,.2-.5l.6-.2.5.2c.2.1.2.2.2.4h-.3v-.2h-.6a.4.4,0,0,0-.1.3c0,.1,0,.2.1.2h.3c.2,0,.3-.1.4-.3h.4c-.1.2-.1.4-.3.5Z" transform="translate(-24.3 -11.1)"/><path class="cls-1" d="M30.6,25h-.3V23.8h.3Z" transform="translate(-24.3 -11.1)"/><path class="cls-1" d="M35.1,25h-.4v-.9h-.4v-.3h1.3v.3h-.5Z" transform="translate(-24.3 -11.1)"/><path class="cls-1" d="M40.1,23.8h.4l-.5.9V25h-.4v-.3l-.5-.9h.4l.3.5h0Z" transform="translate(-24.3 -11.1)"/></svg>