<svg width="248" height="35" viewBox="0 0 248 35" fill="none" xmlns="http://www.w3.org/2000/svg">
<g clip-path="url(#clip0_1_4)">
<path fill-rule="evenodd" clip-rule="evenodd" d="M0 0V34.6875H25.9261L0 0Z" fill="#700CEB"/>
<path fill-rule="evenodd" clip-rule="evenodd" d="M30.6473 1.11051L17.7529 16.5098L30.7717 34.392L43.1515 34.2526L29.5538 16.2185L42.1995 1.09362L30.6473 1.11051Z" fill="black"/>
<path fill-rule="evenodd" clip-rule="evenodd" d="M45.0254 1.11895L45.064 34.5989H53.859L53.8247 20.7787H61.4318V34.5609H70.1882V1.09362H61.3804C61.3804 1.09362 61.2903 13.6217 61.3804 13.6217H53.6017V1.18651C53.6017 1.18651 45.0254 1.18651 45.0254 1.11895Z" fill="black"/>
<path fill-rule="evenodd" clip-rule="evenodd" d="M72.8468 1.18651V34.5904H88.2755V26.9773H81.5818V1.18651H72.8468Z" fill="black"/>
<path fill-rule="evenodd" clip-rule="evenodd" d="M113.232 2.20835V2.50814L106.024 10.78C109.003 14.0087 111.609 16.8814 113.841 19.398V19.6978H107.632L102.551 13.875V19.6978H97.5251V2.20835H102.551V7.95512C103.177 7.19226 104.728 5.27667 107.203 2.20835H113.232ZM129.57 15.526V19.6978H115.351V2.20835H129.202V6.35481H120.312V8.86717H128.708V12.8785H120.312V15.526H129.57ZM147.255 19.6978V9.28942L142.713 14.5759H141.826L137.388 9.28942V19.6978H132.413V2.20835H137.649L142.315 8.1198L146.984 2.20835H152.229V19.6978H147.255ZM168.772 14.1748L171.714 17.4261C169.853 19.2418 167.477 20.1496 164.587 20.1496C163.069 20.182 161.558 19.9357 160.132 19.4233C158.966 19.0076 157.924 18.3125 157.1 17.4008C156.364 16.5543 155.797 15.5787 155.428 14.5253C155.047 13.42 154.859 12.2594 154.87 11.0924C154.868 9.9505 155.07 8.81711 155.466 7.744C155.86 6.66395 156.448 5.66268 157.203 4.78827C158.036 3.84454 159.084 3.1081 160.26 2.63904C161.631 2.08057 163.104 1.80466 164.587 1.82833C165.863 1.81788 167.127 2.05994 168.306 2.54013C169.485 3.02031 170.553 3.72883 171.448 4.6236L168.365 7.60043C167.869 7.11361 167.279 6.7283 166.631 6.4667C165.982 6.20509 165.288 6.07235 164.587 6.07613C163.013 6.07613 161.826 6.59127 161.019 7.6131C160.228 8.60601 159.811 9.83884 159.84 11.1009C159.83 12.3354 160.246 13.5368 161.019 14.5084C161.791 15.4683 162.981 15.9468 164.587 15.944C165.322 15.9337 166.049 15.7906 166.731 15.5218C167.504 15.2292 168.201 14.7721 168.772 14.1833V14.1748ZM190.162 19.7231H185.187V13.0896H178.815V19.7231H173.772V2.23368H178.815V8.86717H185.209V2.23368H190.183V19.7231H190.162ZM205.26 2.23368H210.256V12.0045C210.273 14.5661 209.538 16.5521 208.052 17.9624C206.565 19.3727 204.51 20.0764 201.885 20.0736C199.244 20.0736 197.188 19.3783 195.719 17.9877C194.25 16.5971 193.514 14.5858 193.511 11.9538V2.24213H198.511V11.9538C198.511 13.2853 198.807 14.2705 199.398 14.9095C200.073 15.5244 200.959 15.8659 201.879 15.8659C202.799 15.8659 203.684 15.5244 204.36 14.9095C204.96 14.2677 205.26 13.3064 205.26 12.0256V2.23368ZM217.361 19.6978V6.28303H212.186V2.20835H227.563V6.28303H222.361V19.6978H217.361ZM241.542 19.6978H246.919L238.978 2.20835H233.905L225.938 19.6978H231.268L232.434 16.8265H240.376L241.542 19.6978ZM238.673 12.6674H234.132L236.418 7.09796L238.673 12.6674Z" fill="black"/>
<path fill-rule="evenodd" clip-rule="evenodd" d="M107.881 34.7002H104.776V30.5706H100.771V34.7002H97.6323V23.7894H100.771V27.9358H104.759V23.7894H107.864V34.7002H107.881ZM121.847 25.0265C122.971 26.0399 123.533 27.4404 123.533 29.2279C123.533 31.0154 122.971 32.4229 121.847 33.4504C120.721 34.4581 119.23 34.9634 117.375 34.9662C115.52 34.969 114.03 34.4581 112.907 33.4335C111.78 32.4201 111.216 31.0126 111.213 29.211C111.21 27.4094 111.782 26.0146 112.928 25.0265C114.158 23.967 115.755 23.4163 117.388 23.4896C119.246 23.4896 120.737 23.9963 121.86 25.0097L121.847 25.0265ZM120.398 29.2279C120.418 28.8191 120.356 28.4104 120.215 28.0255C120.073 27.6406 119.856 27.2872 119.575 26.9858C119.288 26.7015 118.944 26.4796 118.566 26.3341C118.187 26.1886 117.781 26.123 117.375 26.1413C116.969 26.1251 116.564 26.1939 116.187 26.3431C115.81 26.4923 115.47 26.7185 115.188 27.0069C114.64 27.6228 114.338 28.4135 114.338 29.2321C114.338 30.0507 114.64 30.8415 115.188 31.4574C115.778 32.0076 116.56 32.3143 117.373 32.3143C118.185 32.3143 118.967 32.0076 119.557 31.4574C119.838 31.158 120.057 30.8069 120.199 30.4243C120.342 30.0417 120.407 29.6351 120.389 29.2279H120.398ZM136.127 34.6875V28.1849L133.292 31.4911H132.739L129.969 28.2018V34.6875H126.864V23.7725H130.141L133.057 27.4671L135.968 23.7725H139.231V34.6875H136.127ZM152.049 32.0907V34.696H143.181V23.7725H151.826V26.3608H146.251V27.9189H151.491V30.4313H146.268V32.0907H152.049ZM163.901 24.8576L162.349 26.8042C161.589 26.2814 160.676 26.0188 159.75 26.0568C159.383 26.0463 159.019 26.1155 158.682 26.2595C158.557 26.3059 158.448 26.3889 158.372 26.4976C158.295 26.6062 158.254 26.7353 158.254 26.8675C158.241 27.0129 158.275 27.1585 158.353 27.2831C158.43 27.4077 158.545 27.5047 158.682 27.56C159.137 27.7166 159.612 27.809 160.093 27.8345C160.651 27.8888 161.203 27.9963 161.74 28.1554C162.237 28.3039 162.713 28.5154 163.155 28.7845C163.598 29.048 163.962 29.4225 164.21 29.8697C164.471 30.3571 164.601 30.9022 164.587 31.4531C164.608 32.1863 164.354 32.9014 163.875 33.463C163.402 34.0063 162.784 34.4085 162.092 34.6242C160.427 35.127 158.648 35.127 156.984 34.6242C156.133 34.2901 155.374 33.7636 154.767 33.0872L156.483 31.1407C156.912 31.5499 157.421 31.8699 157.979 32.0817C158.536 32.2935 159.131 32.3928 159.729 32.3736C160.166 32.3917 160.6 32.3032 160.994 32.1161C161.134 32.0548 161.253 31.9555 161.337 31.8298C161.421 31.7041 161.467 31.5573 161.47 31.4067C161.47 30.8437 160.852 30.5101 159.617 30.406C159.031 30.3576 158.449 30.2673 157.876 30.1357C157.387 30.0053 156.919 29.8108 156.483 29.5572C156.041 29.3145 155.684 28.9467 155.458 28.5016C155.212 27.9829 155.093 27.4145 155.11 26.8422C155.09 26.3492 155.206 25.86 155.444 25.426C155.683 24.9921 156.035 24.6294 156.465 24.3763C157.456 23.7923 158.596 23.4993 159.75 23.5318C161.244 23.4822 162.709 23.9399 163.901 24.8281V24.8576ZM171.362 23.7809H174.501V32.0654H179.806V34.6875H171.362V23.7725V23.7809ZM186.002 34.696H182.885V23.7725H186.002V34.6875V34.696ZM199.218 34.696V28.1849L196.397 31.4911H195.839L193.069 28.2018V34.6875H189.964V23.7725H193.245L196.156 27.4671L199.072 23.7725H202.331V34.6875L199.218 34.696ZM209.39 34.696H206.259V23.7725H209.381V34.6875L209.39 34.696ZM215.68 34.696V26.3144H212.451V23.7809H222.048V26.3144H218.802V34.6875L215.68 34.696ZM233.978 32.0907V34.696H225.127V23.7725H233.772V26.3608H228.197V27.9189H233.442V30.4313H228.197V32.0907H233.978ZM237.451 23.7809H242.202C244.081 23.7809 245.51 24.282 246.491 25.2841C246.989 25.795 247.38 26.3987 247.639 27.0599C247.898 27.7211 248.021 28.4266 248 29.135C248.052 30.5983 247.52 32.0234 246.516 33.1041C245.53 34.1457 244.092 34.6678 242.202 34.6706H237.451V23.7725V23.7809ZM240.564 26.3439V32.0907H242.211C242.596 32.1226 242.983 32.0625 243.339 31.9154C243.695 31.7684 244.01 31.5388 244.256 31.2462C244.704 30.6325 244.931 29.8899 244.904 29.135C244.933 28.4135 244.697 27.7058 244.239 27.142C243.983 26.8696 243.667 26.6578 243.316 26.5225C242.965 26.3872 242.587 26.332 242.211 26.3608L240.564 26.3439Z" fill="black"/>
</g>
<defs>
<clipPath id="clip0_1_4">
<rect width="248" height="35" fill="white"/>
</clipPath>
</defs>
</svg>
