<svg id="Layer_1" data-name="Layer 1" xmlns="http://www.w3.org/2000/svg" width="58.7" height="21" viewBox="0 0 58.7 21"><defs><style>.cls-1{fill:#fff;}</style></defs><path class="cls-1" d="M8.1,14.8l-.4.4a.4.4,0,0,0-.2.4v.2l.2.2L9,17.5c.2.2.2.3.3.3h.2l.3.2v.3c0,.2-.1.4-.5.4H7.7l-.2-.3-.8-.9-.3-.3H6.3c-.1,0-.2.1-.2.4s0,.3.1.4a.1.1,0,0,1,.1.1c.2.1.2.2.2.3a.3.3,0,0,1-.3.3H4c-.1-.1-.1-.1-.1-.2l.2-.3c.1-.1.1-.1.1-.2s.1-.1.1-.2a4.5,4.5,0,0,0,.1-1.3A5.3,5.3,0,0,0,4.3,15c0-.1,0-.2-.1-.2s0-.1-.1-.2-.2-.2-.2-.3A.4.4,0,0,1,4,14H6.1l.3.3v.2l-.2.2c-.1,0-.1.1-.1.2a.8.8,0,0,0-.1.4c0,.2,0,.3.1.3h.2a.7.7,0,0,0,.3-.3.9.9,0,0,0,.3-.5v-.2h0a.5.5,0,0,1,.2-.4H8.8c.3,0,.4.1.4.3s-.1.2-.1.3h-1Z" transform="translate(-3.2 -7)"/><path class="cls-1" d="M12,15.4v2.5l.2.2h.1v.2c0,.3-.4.4-1.2.4H10c0-.1-.1-.1-.1-.2v-.2h.2c0-.1.1-.2.1-.3s.1-.3.1-.6v-.4a.8.8,0,0,1-.1-.4l-.2-.2-.2-.3a.3.3,0,0,1,.3-.3l.9-.3h.7A.2.2,0,0,1,12,15.4Zm-.7-1.5h.5a.4.4,0,0,1,.1.3.5.5,0,0,1-.2.4,2,2,0,0,1-1.1.3h-.4c-.2-.1-.2-.2-.2-.4s.1-.3.4-.5Z" transform="translate(-3.2 -7)"/><path class="cls-1" d="M16.9,16.5V18l.3.2v.2a.3.3,0,0,1-.3.3H15.3c-.1,0-.2-.1-.2-.3h.2a2.2,2.2,0,0,0,.1-1,1.7,1.7,0,0,0-.1-.8l-.3-.2-.4.2a3.5,3.5,0,0,0-.1.6v.7a.4.4,0,0,0,.1.3.8.8,0,0,0,.1.3h.1a.3.3,0,0,1-.3.3h-.9c-.7,0-1-.1-1-.4h.1l.2-.2V16.4l-.2-.2c-.1-.1-.2-.1-.2-.2l.2-.3.5-.2.6-.2h.7v.2h0a.2.2,0,0,0,.2.2v-.2a1.3,1.3,0,0,1,.9-.4l.8.2c.2.2.3.3.3.4A1.5,1.5,0,0,1,16.9,16.5Z" transform="translate(-3.2 -7)"/><path class="cls-1" d="M21.3,15h.2c0,.1.1.1.1.2s-.1.2-.1.4l-.3.3h0a.9.9,0,0,1-.3.7l-.7.4-.9.2H19c-.2,0-.2.1-.2.2s0,.2.1.2h2.3l.3.3v.4a.9.9,0,0,1-.3.7,1.5,1.5,0,0,1-.9.6l-1.1.2a2.3,2.3,0,0,1-1.3-.3l-.4-.3c-.1-.1-.1-.2-.1-.4V19a.3.3,0,0,1,.1-.2h.1c-.2-.2-.3-.3-.3-.5a.8.8,0,0,1,.1-.4.5.5,0,0,1,.4-.2h0v-.2a1.1,1.1,0,0,1-.3-.8.6.6,0,0,1,.1-.4.8.8,0,0,1,.4-.4,2.5,2.5,0,0,1,1.2-.4h1.1a1.3,1.3,0,0,0,.8-.3Zm-2.7,4c-.1,0-.1,0-.1.1l.2.3.6.2h.6c.1-.1.2-.2.2-.3H20c0-.1-.1-.1-.2-.1H18.6Zm.8-3.3-.3.2a.4.4,0,0,0-.1.3c0,.3,0,.5.1.6s.2.3.3.3l.3-.2c.1-.1.1-.2.1-.4a.7.7,0,0,0-.1-.5Q19.6,15.7,19.4,15.7Z" transform="translate(-3.2 -7)"/><path class="cls-1" d="M23.2,15.2h1.1c.1,0,.2,0,.3.2a.5.5,0,0,1,.2.4.4.4,0,0,1,.1.3c0,.1,0,.2-.1.2h-.4l-.4-.3-.3-.2h-.2a.1.1,0,0,0-.1.1c0,.2.1.3.3.4a1.4,1.4,0,0,1,1,.6c.2.1.2.4.2.6a1.1,1.1,0,0,1-.4.9c-.2.2-.5.2-.9.2H22.4c-.1,0-.2,0-.2-.1l-.3-.4a1.1,1.1,0,0,1-.1-.5c0-.2.1-.3.2-.3h.2l.4.4c.1.1.1.2.2.2h.4c.1,0,.1-.1.1-.2l-.3-.3c-.4-.2-.7-.3-.8-.5a1.1,1.1,0,0,1-.3-.7,1.1,1.1,0,0,1,.3-.8A1.2,1.2,0,0,1,23.2,15.2Z" transform="translate(-3.2 -7)"/><path class="cls-1" d="M28,13.8a2.2,2.2,0,0,1,1.6.5,2.4,2.4,0,0,1,.8.9,2.7,2.7,0,0,1,.3,1.2,2.4,2.4,0,0,1-.6,1.5,2.5,2.5,0,0,1-1.2.8h-1a2.5,2.5,0,0,1-1.2-.2,1.9,1.9,0,0,1-1-1,2,2,0,0,1-.4-1.3,2.7,2.7,0,0,1,1.6-2.4Zm-.3,1a.5.5,0,0,0-.5.3c-.1.1-.1.2-.1.4a3.8,3.8,0,0,0,.1,1l.4.9.3.3h.3l.5-.2a.8.8,0,0,0,.2-.5,4.4,4.4,0,0,0-.2-1l-.3-.8a.8.8,0,0,0-.4-.4Z" transform="translate(-3.2 -7)"/><path class="cls-1" d="M33,15.2a2,2,0,0,1,1.1.3,1,1,0,0,1,.5.8c0,.2-.1.3-.2.5h-.5c-.2,0-.3,0-.4-.2s-.1-.1-.2-.3-.2-.3-.4-.3-.2,0-.3.2-.1.2-.1.4a.9.9,0,0,0,.3.7.9.9,0,0,0,.6.3h1v.3c0,.1-.1.2-.2.4l-.3.3a2,2,0,0,1-1.1.2,2,2,0,0,1-1.3-.4A1.7,1.7,0,0,1,31,17a1.6,1.6,0,0,1,.6-1.3A2.2,2.2,0,0,1,33,15.2Z" transform="translate(-3.2 -7)"/><path class="cls-1" d="M38.1,17.1H36.3c0,.2.1.3.3.5l.5.2h1.1v.2a.5.5,0,0,1-.3.5,2.3,2.3,0,0,1-2.6,0l-.4-.5a2.9,2.9,0,0,1-.2-.9,1.3,1.3,0,0,1,.4-1,2.7,2.7,0,0,1,.8-.7h.8a1.5,1.5,0,0,1,1.1.4c.2.1.3.3.4.4a1.4,1.4,0,0,1,.2.6c0,.2,0,.3-.1.4Zm-1.5-.6h.3c.2,0,.2-.1.2-.2s0-.3-.1-.4h-.3l-.3.2c0,.1-.1.2-.1.3h.1C36.4,16.5,36.5,16.5,36.6,16.5Z" transform="translate(-3.2 -7)"/><path class="cls-1" d="M40.8,15.2a1.7,1.7,0,0,1,1,.3c.2.1.3.2.3.4s.1.3.1.6V17a3.5,3.5,0,0,0,.1.7.1.1,0,0,0,.1.1h.1c.1,0,.2,0,.2.1a.8.8,0,0,1-.2.4l-.3.3h-.6c-.3,0-.5,0-.6-.2h-.1c-.1,0-.2,0-.2.1a1.2,1.2,0,0,1-.8.2c-.4,0-.6,0-.8-.2s-.2-.2-.3-.3a.6.6,0,0,1-.1-.4.9.9,0,0,1,.3-.7,2,2,0,0,1,1.4-.5h.3v-.2a.7.7,0,0,0-.1-.5c0-.2-.1-.2-.2-.2h-.2l-.2.2a.9.9,0,0,1-.7.4H39c-.1,0-.1-.1-.1-.2a.6.6,0,0,1,.1-.4l.4-.3A3.2,3.2,0,0,1,40.8,15.2Zm-.3,2.1h-.2l-.2.3c0,.1.1.2.1.3h.2c.2,0,.3-.2.3-.5v-.3Z" transform="translate(-3.2 -7)"/><path class="cls-1" d="M47.2,16.5V18c.1,0,.1.1.2.2v.2a.3.3,0,0,1-.3.3H45.6c-.1,0-.2-.1-.2-.3h.2a2.2,2.2,0,0,0,.1-1,1.7,1.7,0,0,0-.1-.8l-.4-.2-.3.2a3.5,3.5,0,0,0-.1.6v.7a.4.4,0,0,0,.1.3.8.8,0,0,0,.1.3h.1a.3.3,0,0,1-.3.3h-.9c-.7,0-1-.1-1-.4H43l.2-.2V16.4l-.2-.2c-.1-.1-.2-.1-.2-.2s.1-.2.1-.3l.6-.2.6-.2h.5a.1.1,0,0,1,.1.1c.1,0,.1.1.1.2h0a.2.2,0,0,0,.2.2v-.2a1.3,1.3,0,0,1,.9-.4l.8.2c.2.2.3.3.3.4A1.5,1.5,0,0,1,47.2,16.5Z" transform="translate(-3.2 -7)"/><path class="cls-1" d="M28,19.9l-.9,2h-.5l-.9-2h.5l.7,1.4.6-1.4Z" transform="translate(-3.2 -7)"/><path class="cls-1" d="M28.3,19.9h.5v2h-.5Z" transform="translate(-3.2 -7)"/><path class="cls-1" d="M31,21.5v.4H29.4v-2h1.5v.3h-1v.5h.9V21h-.9v.5Z" transform="translate(-3.2 -7)"/><path class="cls-1" d="M34.6,19.9l-.7,2h-.5l-.5-1.4-.4,1.4H32l-.7-2h.5l.4,1.4.5-1.4h.5l.4,1.4.5-1.4Z" transform="translate(-3.2 -7)"/><path class="cls-1" d="M37.5,21.6v.3H36v-2h1.4v.2H36.3v.6h1V21h-1v.6Z" transform="translate(-3.2 -7)"/><path class="cls-1" d="M37.9,21.7v-.3a.9.9,0,0,0,.7.3c.3,0,.5-.2.5-.3s-1.2-.2-1.2-1,.2-.6.7-.6l.7.2v.3a.7.7,0,0,0-.6-.2c-.3,0-.5.1-.5.3s1.3.2,1.3.9-.3.6-.8.6Z" transform="translate(-3.2 -7)"/><path class="cls-1" d="M40.4,20.1h-.7v-.2h1.7v.2h-.7v1.8h-.3Z" transform="translate(-3.2 -7)"/><path class="cls-1" d="M43.1,21.4H42l-.2.5h-.3l.9-2h.3l.9,2h-.3Zm-.1-.2-.4-1-.5,1Z" transform="translate(-3.2 -7)"/><path class="cls-1" d="M44.4,20.1h-.7v-.2h1.7v.2h-.7v1.8h-.3Z" transform="translate(-3.2 -7)"/><path class="cls-1" d="M47.3,21.6v.3H45.8v-2h1.5v.2H46.1v.6h1.1V21H46.1v.6Z" transform="translate(-3.2 -7)"/><path class="cls-1" d="M47.7,12h.1c.3-.1.5-.1.5.2a.9.9,0,0,1,.1.5l.2-.4c0-.2,0-.3-.2-.4h-.2c-.1,0-.1,0,0-.1h-.3a.4.4,0,0,0-.4-.4H47l.5.2A.4.4,0,0,1,47.7,12Z" transform="translate(-3.2 -7)"/><path class="cls-1" d="M46.8,12.2c.2,0,.2.2.1.3s-.1.1,0,.1H47c.2-.1.3,0,.4.2v.2c.2-.2.2-.4-.1-.5s0-.1,0-.1h-.1c-.1,0-.1,0-.1-.1l-.3-.2h0Z" transform="translate(-3.2 -7)"/><path class="cls-1" d="M48.3,23h3.8l-.3-.8-.3-1.2h0a8.9,8.9,0,0,1,0-2.3v-.2c0-.3-.2-.1-.3-.2s-.1.2-.2.3-.2.1-.2.3-.3,0-.2.2h-.1l-.2.4c-.2-.4-.2,0-.3,0h0c-.1,0-.2.1-.2-.1a2,2,0,0,1,.6-1.1c.3-.2.6-.4.4-.8h-.6c.1-.4-.2-.2-.3-.3l.2-.2h-.5c-.1,0-.4.2-.2-.2s-.2,0-.2,0-.2.1-.2-.1.1-.2.2-.2a1.8,1.8,0,0,1,1.4.2s.2.2.2,0,.4-.3,0-.4h0c0-.1.1-.3-.1-.4s-.1-.3-.3-.4v-.2h.2a2.7,2.7,0,0,1,.7.8,3.6,3.6,0,0,1,.4,1.1l.3-.6a2,2,0,0,1,1.9-1h.1c-.3.3.2.2.1.3h-.5c0,.1.2.1.2.2s-.6.1-.9.1.3.1.3.3h-.4c.3.2.1.3,0,.5s-.4,0-.5,0h0c.2.4-.3.2-.3.4,1.5,0,2.2.4,2.3,1.4h-.7c-.2.1-.4,0-.4-.2a.3.3,0,0,0-.3-.3,3.4,3.4,0,0,1-.1,1c0-.2-.4-.3-.3-.5h-.1c-.3.3-.2-.1-.2-.1s0-.3-.1-.3h0l-.3-.4h-.2c-.1,0-.1.1-.1.2a7.9,7.9,0,0,0,.8,4.3c.1.3.2.4.4.1a16.1,16.1,0,0,0,3.4-9.7c0-.3-.1-.3-.3-.2a1.4,1.4,0,0,0-.9,1.1l-.4-.4a2.7,2.7,0,0,1-.2,1.3c-.2-.2-.1-.4-.3-.6a2.6,2.6,0,0,1-.5,1.2l-.2-.5c-.2.1.1.5-.2.6v-.3a6.9,6.9,0,0,1,.3-2,1.2,1.2,0,0,1,1.3-.9h.7c-1.3-.5-2,.2-2.5,1.2s-.1-.2-.2-.2a.6.6,0,0,1-.1.4c0,.2-.1.4-.2.4s-.7.3-.9.2,0-.5.1-.7h-.2c-.2.6-.6.6-1.2.6H50v-.2c.1-.2.1-.2-.1-.3s0-.2.1-.2,2.6-2.2,4.5-1.8l1,.4a1.2,1.2,0,0,0-.7-.5c-.1-.2-.6,0-.2-.4l.6-.3h-1a1.4,1.4,0,0,1-.8-.7c-.1,0,0-.1.1-.2l.4-.2c-.3-.2-.7-.2-.9-.6h.5c.1-.1.2-.1.2-.2h-.2a2.8,2.8,0,0,1-1.3-.3L52,8.1h.3l.5-.3-1.5-.2h0l1.1-.2h0L51.5,7c2.3-.2,4,1.2,4.6,4.3A4.9,4.9,0,0,1,59.3,7c0,.1,0,.2-.1.2l-.2.2h.7l-.8.4c-.1,0-.2.1,0,.2s.1.2-.1.3l-.7.3c.2.2.4,0,.6.2l-.8.2,1.1.2-1.4.4c.2.2.5.1.5.4s-.2.4-.3.6l-.2.2a2.7,2.7,0,0,0-.8.7h0c.4-.1.6-.4.9-.7a4,4,0,0,1,3.8-.5c.2,0,.3,0,.4.2h-.3c-.1.2.3.2.2.4H61c0,.2.2.3.4.4a3.6,3.6,0,0,1-1.8-.3c0,.3.3.4.4.7s-.6-.1-.9-.1h0c0,.2.3.3.1.5h-.9l-.3-.2h-.1c.1.1.3.3,0,.4h-.4a1.4,1.4,0,0,0-.9-.3h0l.9.5a4,4,0,0,1,2,3.8l-.7-1.2c-.2.1-.1.3-.2.5a1.2,1.2,0,0,1-.4-.9c0-.3,0-.5-.3-.4h-.2c-.1-.2.1-.5-.3-.7s-.2-.5-.2-.8-.2.3-.5.2l-.3-.4a16.6,16.6,0,0,1-.3,3.2,16.8,16.8,0,0,1-2.3,6.6c-.1.3-.1.4.2.4a7.6,7.6,0,0,1,2,.6c.1,0,.2,0,.2.2a15.2,15.2,0,0,0-6,.4l-4.4,1.4a39.7,39.7,0,0,1-5.8,2,12.5,12.5,0,0,1-8.1-.5l-1.6-.9h-.1a16,16,0,0,0,8.4,0,46.9,46.9,0,0,0,6-2h0l1.3-.4H46l1.6-.5h.7Z" transform="translate(-3.2 -7)"/><path class="cls-1" d="M39.4,25.2h-.7l-2.9.4a17.7,17.7,0,0,1-11.2-3l-1-.8c-.1-.2.1-.1.2-.1l.7.3a28.7,28.7,0,0,0,3.7,1.5,25.4,25.4,0,0,0,9.5.9,34,34,0,0,0,4.6-.9h.4L46,22.5l.3-.2c.1.1.2-.1.3,0l-1.1.6h0c-.1,0-.2,0-.2.1h-.1l-1,.5h-.1l-.6.3h-.8l-1.6.5Z" transform="translate(-3.2 -7)"/><path class="cls-1" d="M3.3,13.9h.1c.2.1.3.3.5.5a3.4,3.4,0,0,1,1.4-.5h1a1.4,1.4,0,0,1,.2-.6h.2a.1.1,0,0,0-.1-.1H6.5l-.3.3H5.9v-.4H5.8a.5.5,0,0,1-.3.5H5.2L4.8,13h.1s.1-.1,0-.1-.1-.2-.2-.1a.1.1,0,0,0-.1.1V13h.1v.3a.8.8,0,0,1-.1.4.2.2,0,0,1-.3.1l-.5-.4c.1-.1,0-.2,0-.3H3.7c0,.1-.1.1,0,.2h.2c0,.2.1.3.1.4s-.1.3-.2.3l-.4-.2H3.3Z" transform="translate(-3.2 -7)"/></svg>