<svg id="Layer_1" data-name="Layer 1" xmlns="http://www.w3.org/2000/svg" xmlns:xlink="http://www.w3.org/1999/xlink" width="60.2" height="12.1" viewBox="0 0 60.2 12.1"><defs><style>.cls-1{fill:#fff;}.cls-2{clip-path:url(#clip-path);}.cls-3{clip-path:url(#clip-path-2);}</style><clipPath id="clip-path" transform="translate(-3 -12.8)"><path class="cls-1" d="M10.3,23.2l-.4-.3h0a.9.9,0,0,1-.5-.3H9.3c-.3-.1-.5-.1-.7-.3H7.2a2.3,2.3,0,0,0-1.4.7c.2.1.4,0,.7,0H8.2a5.8,5.8,0,0,1,1.8.8l-.5-.2a8.7,8.7,0,0,0-3.6-.4c-.2.1-.2.2-.1.3s.1.3.2.4.1.1.1.2.3.2.4.3,1.9.3,2.9.2h1.8A5.4,5.4,0,0,0,10.3,23.2Z"/></clipPath><clipPath id="clip-path-2" transform="translate(-3 -12.8)"><path class="cls-1" d="M5.8,15.4h0a5.6,5.6,0,0,1,1,1.5,5.4,5.4,0,0,1,.5,2.8,3.1,3.1,0,0,1-1.2,2.4l-.4.3c-.1-.2.1-.3.1-.4a8.3,8.3,0,0,0-.1-5.4c-.1-.3-.1-.6-.4-.8v.3a5.9,5.9,0,0,1,.4,1.7,12.2,12.2,0,0,1,0,2.7,11.6,11.6,0,0,1-.4,1.8s0,.2-.2.1a3.6,3.6,0,0,1-1.5-2.1v-.2a7.6,7.6,0,0,1,.1-1.5c.1-.5.3-1,.4-1.6a7.8,7.8,0,0,0,.4-2.2c.1,0,0-.2.2-.3A3.9,3.9,0,0,1,5.8,15.4Z"/></clipPath></defs><path class="cls-1" d="M5.5,23.7a.6.6,0,0,1-.1-.6l-.8-.7A5.5,5.5,0,0,1,3.1,20H3a9.4,9.4,0,0,0,2.5,3.7Z" transform="translate(-3 -12.8)"/><path class="cls-1" d="M10.3,23.2l-.4-.3h0a.9.9,0,0,1-.5-.3H9.3c-.3-.1-.5-.1-.7-.3H7.2a2.3,2.3,0,0,0-1.4.7c.2.1.4,0,.7,0H8.2a5.8,5.8,0,0,1,1.8.8l-.5-.2a8.7,8.7,0,0,0-3.6-.4c-.2.1-.2.2-.1.3s.1.3.2.4.1.1.1.2.3.2.4.3,1.9.3,2.9.2h1.8A5.4,5.4,0,0,0,10.3,23.2Z" transform="translate(-3 -12.8)"/><g class="cls-2"><rect class="cls-1" x="2.7" y="9.3" height="2.71"/><rect class="cls-1" x="2.7" y="9.3" width="0.1" height="2.71"/><rect class="cls-1" x="2.8" y="9.3" width="0.1" height="2.71"/><rect class="cls-1" x="2.9" y="9.3" width="0.1" height="2.71"/><rect class="cls-1" x="2.9" y="9.3" width="0.1" height="2.71"/><rect class="cls-1" x="3" y="9.3" width="0.1" height="2.71"/><rect class="cls-1" x="3.1" y="9.3" width="0.1" height="2.71"/><rect class="cls-1" x="3.2" y="9.3" width="0.1" height="2.71"/><rect class="cls-1" x="3.2" y="9.3" width="0.1" height="2.71"/><rect class="cls-1" x="3.3" y="9.3" width="0.1" height="2.71"/><rect class="cls-1" x="3.4" y="9.3" width="0.1" height="2.71"/><rect class="cls-1" x="3.4" y="9.3" width="0.1" height="2.71"/><rect class="cls-1" x="3.5" y="9.3" width="0.1" height="2.71"/><rect class="cls-1" x="3.6" y="9.3" width="0.1" height="2.71"/><rect class="cls-1" x="3.6" y="9.3" width="0.1" height="2.71"/><rect class="cls-1" x="3.7" y="9.3" width="0.1" height="2.71"/><rect class="cls-1" x="3.8" y="9.3" width="0.1" height="2.71"/><rect class="cls-1" x="3.9" y="9.3" width="0.1" height="2.71"/><rect class="cls-1" x="3.9" y="9.3" width="0.1" height="2.71"/><rect class="cls-1" x="4" y="9.3" width="0.1" height="2.71"/><rect class="cls-1" x="4.1" y="9.3" width="0.1" height="2.71"/><rect class="cls-1" x="4.1" y="9.3" width="0.1" height="2.71"/><rect class="cls-1" x="4.2" y="9.3" width="0.1" height="2.71"/><rect class="cls-1" x="4.3" y="9.3" width="0.1" height="2.71"/><rect class="cls-1" x="4.3" y="9.3" width="0.1" height="2.71"/><rect class="cls-1" x="4.4" y="9.3" width="0.1" height="2.71"/><rect class="cls-1" x="4.5" y="9.3" width="0.1" height="2.71"/><rect class="cls-1" x="4.5" y="9.3" width="0.1" height="2.71"/><rect class="cls-1" x="4.6" y="9.3" width="0.1" height="2.71"/><rect class="cls-1" x="4.7" y="9.3" width="0.1" height="2.71"/><rect class="cls-1" x="4.8" y="9.3" width="0.1" height="2.71"/><rect class="cls-1" x="4.8" y="9.3" width="0.1" height="2.71"/><rect class="cls-1" x="4.9" y="9.3" width="0.1" height="2.71"/><rect class="cls-1" x="5" y="9.3" width="0.1" height="2.71"/><rect class="cls-1" x="5" y="9.3" width="0.1" height="2.71"/><rect class="cls-1" x="5.1" y="9.3" width="0.1" height="2.71"/><rect class="cls-1" x="5.2" y="9.3" width="0.1" height="2.71"/><rect class="cls-1" x="5.2" y="9.3" width="0.1" height="2.71"/><rect class="cls-1" x="5.3" y="9.3" width="0.1" height="2.71"/><rect class="cls-1" x="5.4" y="9.3" width="0.1" height="2.71"/><rect class="cls-1" x="5.4" y="9.3" width="0.1" height="2.71"/><rect class="cls-1" x="5.5" y="9.3" width="0.1" height="2.71"/><rect class="cls-1" x="5.6" y="9.3" width="0.1" height="2.71"/><rect class="cls-1" x="5.7" y="9.3" width="0.1" height="2.71"/><rect class="cls-1" x="5.7" y="9.3" width="0.1" height="2.71"/><rect class="cls-1" x="5.8" y="9.3" width="0.1" height="2.71"/><rect class="cls-1" x="5.9" y="9.3" width="0.1" height="2.71"/><rect class="cls-1" x="5.9" y="9.3" width="0.1" height="2.71"/><rect class="cls-1" x="6" y="9.3" width="0.1" height="2.71"/><rect class="cls-1" x="6.1" y="9.3" width="0.1" height="2.71"/><rect class="cls-1" x="6.1" y="9.3" width="0.1" height="2.71"/><rect class="cls-1" x="6.2" y="9.3" width="0.1" height="2.71"/><rect class="cls-1" x="6.3" y="9.3" width="0.1" height="2.71"/><rect class="cls-1" x="6.4" y="9.3" width="0.1" height="2.71"/><rect class="cls-1" x="6.4" y="9.3" width="0.1" height="2.71"/><rect class="cls-1" x="6.5" y="9.3" width="0.1" height="2.71"/><rect class="cls-1" x="6.6" y="9.3" width="0.1" height="2.71"/><rect class="cls-1" x="6.6" y="9.3" width="0.1" height="2.71"/><rect class="cls-1" x="6.7" y="9.3" width="0.1" height="2.71"/><rect class="cls-1" x="6.8" y="9.3" width="0.1" height="2.71"/><rect class="cls-1" x="6.8" y="9.3" width="0.1" height="2.71"/><rect class="cls-1" x="6.9" y="9.3" width="0.1" height="2.71"/><rect class="cls-1" x="7" y="9.3" width="0.1" height="2.71"/><rect class="cls-1" x="7" y="9.3" width="0.1" height="2.71"/><rect class="cls-1" x="7.1" y="9.3" width="0.1" height="2.71"/><rect class="cls-1" x="7.2" y="9.3" width="0.1" height="2.71"/><rect class="cls-1" x="7.3" y="9.3" width="0.1" height="2.71"/><rect class="cls-1" x="7.3" y="9.3" width="0.1" height="2.71"/><rect class="cls-1" x="7.4" y="9.3" width="0.1" height="2.71"/><rect class="cls-1" x="7.5" y="9.3" width="0.1" height="2.71"/><rect class="cls-1" x="7.5" y="9.3" width="0.1" height="2.71"/><rect class="cls-1" x="7.6" y="9.3" width="0.1" height="2.71"/><rect class="cls-1" x="7.7" y="9.3" width="0.1" height="2.71"/><rect class="cls-1" x="7.7" y="9.3" width="0.1" height="2.71"/><rect class="cls-1" x="7.8" y="9.3" width="0.1" height="2.71"/><rect class="cls-1" x="7.9" y="9.3" width="0.1" height="2.71"/><rect class="cls-1" x="7.9" y="9.3" width="0.1" height="2.71"/><rect class="cls-1" x="8" y="9.3" width="0.1" height="2.71"/><rect class="cls-1" x="8.1" y="9.3" width="0.1" height="2.71"/><path class="cls-1" d="M11.2,24.9v0Z" transform="translate(-3 -12.8)"/></g><path class="cls-1" d="M15.1,16.1c0-.1-.1-.3-.1-.4a6.9,6.9,0,0,0-3.4-2.9h0a8.1,8.1,0,0,1,2.6,2.6,6.5,6.5,0,0,1,.5,2,5.8,5.8,0,0,1-3.3,6c-.1,0-.2,0-.2.1l.3.6h.2a6.2,6.2,0,0,0,3.7-5A7.7,7.7,0,0,0,15.1,16.1Z" transform="translate(-3 -12.8)"/><path class="cls-1" d="M13.8,16.8a.4.4,0,0,0-.1-.3A4.9,4.9,0,0,0,10.9,14h0A6,6,0,0,1,13,16.2a6.1,6.1,0,0,1,.5,1.8,4.8,4.8,0,0,1-2.8,5h.1l.3.4a5.3,5.3,0,0,0,3-4.2A5.4,5.4,0,0,0,13.8,16.8Z" transform="translate(-3 -12.8)"/><path class="cls-1" d="M11.1,23.6h0l-.3-.4h-.1a5,5,0,0,0,2.8-5,5.5,5.5,0,0,0-.5-1.7,4.9,4.9,0,0,0-2.1-2.2h0a4.7,4.7,0,0,1,2.8,2.5c.1,0,.1.1.1.2h.1a7.2,7.2,0,0,1,.2,2.5,5.7,5.7,0,0,1-2.9,4.3Zm-.3-.5h0l.4.4a5.4,5.4,0,0,0,2.9-4.2,5.5,5.5,0,0,0-.3-2.5h0v-.2A5,5,0,0,0,10.9,14h0a6.4,6.4,0,0,1,2.2,2.1,3.9,3.9,0,0,1,.4,1.8A5,5,0,0,1,10.8,23.1Z" transform="translate(-3 -12.8)"/><path class="cls-1" d="M12.6,20.6H9V16.3l.2-2.1H6.7v1.7l.4.8a5.6,5.6,0,0,1,.6,3.1,5.2,5.2,0,0,1-.7,2H8.9l.5.2h.3l.2.2H11A4,4,0,0,0,12.6,20.6Z" transform="translate(-3 -12.8)"/><path class="cls-1" d="M5.8,15.4h0a5.6,5.6,0,0,1,1,1.5,5.4,5.4,0,0,1,.5,2.8,3.1,3.1,0,0,1-1.2,2.4l-.4.3c-.1-.2.1-.3.1-.4a8.3,8.3,0,0,0-.1-5.4c-.1-.3-.1-.6-.4-.8v.3a5.9,5.9,0,0,1,.4,1.7,12.2,12.2,0,0,1,0,2.7,11.6,11.6,0,0,1-.4,1.8s0,.2-.2.1a3.6,3.6,0,0,1-1.5-2.1v-.2a7.6,7.6,0,0,1,.1-1.5c.1-.5.3-1,.4-1.6a7.8,7.8,0,0,0,.4-2.2c.1,0,0-.2.2-.3A3.9,3.9,0,0,1,5.8,15.4Z" transform="translate(-3 -12.8)"/><g class="cls-3"><polygon class="cls-1" points="3.4 1.8 4.2 4.6 0.7 5.6 0.7 1.8 3.4 1.8"/><polygon class="cls-1" points="4.2 4.6 4.2 4.7 0.7 5.6 0.7 5.6 4.2 4.6"/><polygon class="cls-1" points="4.2 4.7 4.2 4.7 0.7 5.7 0.7 5.6 4.2 4.7"/><polygon class="cls-1" points="4.2 4.7 4.2 4.8 0.7 5.7 0.7 5.7 4.2 4.7"/><polygon class="cls-1" points="4.2 4.8 4.3 4.8 0.7 5.8 0.7 5.7 4.2 4.8"/><polygon class="cls-1" points="4.3 4.8 4.3 4.8 0.7 5.8 0.7 5.8 4.3 4.8"/><polygon class="cls-1" points="4.3 4.8 4.3 4.9 0.7 5.9 0.7 5.8 4.3 4.8"/><polygon class="cls-1" points="4.3 4.9 4.3 4.9 0.7 5.9 0.7 5.9 4.3 4.9"/><polygon class="cls-1" points="4.3 4.9 4.3 5 0.7 6 0.7 5.9 4.3 4.9"/><polygon class="cls-1" points="4.3 5 4.3 5 0.7 6 0.7 6 4.3 5"/><polygon class="cls-1" points="4.3 5 4.3 5.1 0.7 6.1 0.7 6 4.3 5"/><polygon class="cls-1" points="4.3 5.1 4.3 5.1 0.7 6.1 0.7 6.1 4.3 5.1"/><polygon class="cls-1" points="4.3 5.1 4.4 5.2 0.7 6.2 0.7 6.1 4.3 5.1"/><polygon class="cls-1" points="4.4 5.2 4.4 5.2 0.7 6.2 0.7 6.2 4.4 5.2"/><polygon class="cls-1" points="4.4 5.2 4.4 5.3 0.7 6.3 0.7 6.2 4.4 5.2"/><polygon class="cls-1" points="4.4 5.3 4.4 5.3 0.7 6.3 0.7 6.3 4.4 5.3"/><polygon class="cls-1" points="4.4 5.3 4.4 5.3 0.7 6.3 0.7 6.3 4.4 5.3"/><polygon class="cls-1" points="4.4 5.3 4.4 5.3 4.4 5.4 0.7 6.4 0.7 6.3 4.4 5.3"/><polygon class="cls-1" points="4.4 5.4 0.7 6.4 0.7 6.4 4.4 5.4 4.4 5.4"/><polygon class="cls-1" points="4.4 5.5 0.7 6.5 0.7 6.4 4.4 5.4 4.4 5.5"/><polygon class="cls-1" points="4.4 5.5 0.7 6.5 0.7 6.5 4.4 5.5 4.4 5.5"/><polygon class="cls-1" points="4.4 5.6 0.7 6.6 0.7 6.5 4.4 5.5 4.4 5.6"/><polygon class="cls-1" points="4.4 5.6 0.7 6.6 0.7 6.6 4.4 5.6 4.4 5.6"/><polygon class="cls-1" points="4.4 5.7 0.7 6.7 0.7 6.6 4.4 5.6 4.4 5.7"/><polygon class="cls-1" points="4.4 5.7 0.7 6.7 0.7 6.7 4.4 5.7 4.4 5.7"/><polygon class="cls-1" points="4.4 5.8 0.7 6.8 0.7 6.7 4.4 5.7 4.4 5.8"/><polygon class="cls-1" points="4.4 5.8 0.7 6.8 0.7 6.8 4.4 5.8 4.4 5.8"/><polygon class="cls-1" points="4.4 5.9 0.7 6.9 0.7 6.8 4.4 5.8 4.4 5.9"/><polygon class="cls-1" points="4.4 5.9 0.7 6.9 0.7 6.9 4.4 5.9 4.4 5.9"/><polygon class="cls-1" points="4.4 6 0.7 7 0.7 6.9 4.4 5.9 4.4 6"/><polygon class="cls-1" points="4.4 6 0.7 7 0.7 7 4.4 6 4.4 6"/><polygon class="cls-1" points="4.4 6.1 0.7 7.1 0.7 7 4.4 6 4.4 6.1"/><polygon class="cls-1" points="4.4 6.1 0.7 7.1 0.7 7.1 4.4 6.1 4.4 6.1"/><polygon class="cls-1" points="4.4 6.2 0.7 7.2 0.7 7.1 4.4 6.1 4.4 6.2"/><polygon class="cls-1" points="4.4 6.2 0.7 7.2 0.7 7.2 4.4 6.2 4.4 6.2"/><polygon class="cls-1" points="4.4 6.3 0.7 7.3 0.7 7.2 4.4 6.2 4.4 6.3"/><polygon class="cls-1" points="4.4 6.3 0.7 7.3 0.7 7.3 4.4 6.3 4.4 6.3"/><polygon class="cls-1" points="4.4 6.4 0.7 7.4 0.7 7.3 4.4 6.3 4.4 6.4"/><polygon class="cls-1" points="4.4 6.4 0.7 7.4 0.7 7.4 4.4 6.4 4.4 6.4"/><polygon class="cls-1" points="4.4 6.5 0.7 7.5 0.7 7.4 4.4 6.4 4.4 6.5"/><polygon class="cls-1" points="4.4 6.5 0.7 7.5 0.7 7.5 4.4 6.5 4.4 6.5"/><polygon class="cls-1" points="4.4 6.6 0.7 7.6 0.7 7.5 4.4 6.5 4.4 6.6"/><polygon class="cls-1" points="4.4 6.6 0.7 7.6 0.7 7.6 4.4 6.6 4.4 6.6"/><polygon class="cls-1" points="4.4 6.6 0.7 7.7 0.7 7.6 4.4 6.6 4.4 6.6"/><polygon class="cls-1" points="4.4 6.7 0.7 7.7 0.7 7.7 4.4 6.6 4.4 6.7"/><polygon class="cls-1" points="4.4 6.7 0.7 7.7 0.7 7.7 4.4 6.7 4.4 6.7"/><polygon class="cls-1" points="4.4 6.8 0.7 7.8 0.7 7.7 4.4 6.7 4.4 6.8"/><polygon class="cls-1" points="4.4 6.8 0.7 7.8 0.7 7.8 4.4 6.8 4.4 6.8"/><polygon class="cls-1" points="4.4 6.9 0.7 7.9 0.7 7.9 0.7 7.8 4.4 6.8 4.4 6.9"/><polygon class="cls-1" points="4.4 6.9 0.7 7.9 0.7 7.9 4.4 6.9 4.4 6.9"/><polygon class="cls-1" points="4.4 7 0.7 8 0.7 7.9 4.4 6.9 4.4 7"/><polygon class="cls-1" points="4.4 7 0.7 8 0.7 8 4.4 7 4.4 7"/><polygon class="cls-1" points="4.4 7.1 0.8 8.1 0.7 8 4.4 7 4.4 7.1"/><polygon class="cls-1" points="4.4 7.1 0.8 8.1 0.8 8.1 4.4 7.1 4.4 7.1"/><polygon class="cls-1" points="4.4 7.2 0.8 8.2 0.8 8.1 4.4 7.1 4.4 7.2"/><polygon class="cls-1" points="4.4 7.2 0.8 8.2 0.8 8.2 4.4 7.2 4.4 7.2"/><polygon class="cls-1" points="4.4 7.3 0.8 8.3 0.8 8.2 4.4 7.2 4.4 7.3"/><polygon class="cls-1" points="4.4 7.3 0.8 8.3 0.8 8.3 4.4 7.3 4.4 7.3"/><polygon class="cls-1" points="4.4 7.4 0.8 8.3 0.8 8.3 4.4 7.3 4.4 7.4"/><polygon class="cls-1" points="4.4 7.4 0.8 8.4 0.8 8.3 4.4 7.4 4.4 7.4"/><polygon class="cls-1" points="4.4 7.5 0.9 8.4 0.8 8.4 4.4 7.4 4.4 7.5"/><polygon class="cls-1" points="4.4 7.5 0.9 8.5 0.9 8.4 4.4 7.5 4.4 7.5"/><polygon class="cls-1" points="4.4 7.6 0.9 8.5 0.9 8.5 4.4 7.5 4.4 7.6"/><polygon class="cls-1" points="4.4 7.6 0.9 8.6 0.9 8.5 4.4 7.6 4.4 7.6"/><polygon class="cls-1" points="4.4 7.7 0.9 8.6 0.9 8.6 4.4 7.6 4.4 7.7"/><polygon class="cls-1" points="4.4 7.7 0.9 8.7 0.9 8.6 4.4 7.7 4.4 7.7"/><polygon class="cls-1" points="4.4 7.8 0.9 8.7 0.9 8.7 4.4 7.7 4.4 7.8"/><polygon class="cls-1" points="4.4 7.8 0.9 8.7 0.9 8.7 4.4 7.8 4.4 7.8"/><polygon class="cls-1" points="4.4 7.9 0.9 8.8 0.9 8.7 4.4 7.8 4.4 7.9"/><polygon class="cls-1" points="4.4 7.9 1 8.8 0.9 8.8 4.4 7.9 4.4 7.9"/><polygon class="cls-1" points="4.4 8 1 8.9 1 8.8 4.4 7.9 4.4 8"/><polygon class="cls-1" points="4.4 8 1 8.9 1 8.9 4.4 8 4.4 8"/><polygon class="cls-1" points="4.4 8 1 9 1 8.9 4.4 8 4.4 8"/><polygon class="cls-1" points="4.4 8.1 1 9 1 9 4.4 8 4.4 8.1"/><polygon class="cls-1" points="4.4 8.1 1 9.1 1 9 4.4 8.1 4.4 8.1"/><polygon class="cls-1" points="4.4 8.2 1 9.1 1 9.1 4.4 8.1 4.4 8.2"/><polygon class="cls-1" points="4.4 8.2 1 9.2 1 9.1 4.4 8.2 4.4 8.2"/><polygon class="cls-1" points="4.4 8.3 1.1 9.2 1 9.2 4.4 8.2 4.4 8.3"/><polygon class="cls-1" points="4.4 8.3 1.1 9.2 1.1 9.2 4.4 8.3 4.4 8.3"/><polygon class="cls-1" points="1.2 9.8 1.1 9.2 4.4 8.3 4.4 9.8 1.2 9.8"/></g><path class="cls-1" d="M17.4,19.9V14.4h1.8v4.1h2.9v1.4Z" transform="translate(-3 -12.8)"/><path class="cls-1" d="M27.6,19.9l-.3-.9H24.8l-.3.9H22.7l1.7-5.5h3.3l1.7,5.5Zm-2.4-2.3h1.7l-.6-1.8h-.5Z" transform="translate(-3 -12.8)"/><path class="cls-1" d="M33.6,14.4h1.8l-1.7,5.5H30.5l-1.6-5.5h1.8l1.2,4.1h.5Z" transform="translate(-3 -12.8)"/><path class="cls-1" d="M36,19.9V14.4h5v1.3H37.8v.7h2.9v1.4H37.8v.8h3.3v1.3Z" transform="translate(-3 -12.8)"/><path class="cls-1" d="M48,19.9H45.8l-1.5-1.5h-.6v1.5H41.9V14.4H45c1.8,0,2.7.7,2.7,2a1.8,1.8,0,0,1-1.4,1.9Zm-4.3-4.1v1.3H45c.6,0,1-.3,1-.7s-.4-.6-1-.6Z" transform="translate(-3 -12.8)"/><path class="cls-1" d="M53.5,14.4h1.8v5.5H52.5l-2-3.8h-.1v3.8H48.6V14.4h2.8l2,3.8h.1Z" transform="translate(-3 -12.8)"/><path class="cls-1" d="M60.9,19.9l-.3-.9H58l-.3.9H55.9l1.7-5.5H61l1.7,5.5Zm-2.4-2.3h1.7l-.6-1.8H59Z" transform="translate(-3 -12.8)"/><path class="cls-1" d="M18.6,22h2v.2c0,1.1-.6,1.7-1.8,1.7s-2-.5-2-1.6.6-1.5,1.9-1.5,1.7.3,1.8.9H18.7c-.7,0-.9.2-.9.8s.3.8.9.8.9-.1.9-.4h-1Z" transform="translate(-3 -12.8)"/><path class="cls-1" d="M23.4,23.8l-.2-.5H21.8v.5h-1l.9-3h1.8l.9,3Zm-1.3-1.3H23l-.3-.9h-.3Z" transform="translate(-3 -12.8)"/><path class="cls-1" d="M27.9,23.8H26.7l-.8-.8h-.3v.8h-1v-3h1.7c1,0,1.5.4,1.5,1.1a1,1,0,0,1-.8,1Zm-2.3-2.2v.7h.7a.5.5,0,0,0,.5-.4c0-.2-.2-.3-.5-.3Z" transform="translate(-3 -12.8)"/><path class="cls-1" d="M28.2,23.8v-3h1.7c1.3,0,2,.5,2,1.5s-.6,1.5-2,1.5Zm1-.8h.7c.7,0,1-.2,1-.7s-.3-.7-1-.7h-.7Z" transform="translate(-3 -12.8)"/><path class="cls-1" d="M32.2,23.8v-3h2.7v.7H33.2v.4h1.6v.7H33.2v.5H35v.7Z" transform="translate(-3 -12.8)"/><path class="cls-1" d="M38.1,20.8H39v3H37.5l-1.1-2.1h0v2.1h-1v-3h1.5L38,22.9h.1Z" transform="translate(-3 -12.8)"/><path class="cls-1" d="M39.4,22.8h.9c0,.2.2.3.7.3s.6-.1.6-.3H40.4c-.7-.1-.9-.4-.9-.9s.5-.9,1.5-.9,1.4.3,1.5.9h-.9c0-.1-.2-.2-.6-.2s-.6.1-.6.2.1.1.2.2h.9c.7.1,1.1.4,1.1.9S42,23.9,41,23.9,39.4,23.5,39.4,22.8Z" transform="translate(-3 -12.8)"/><path class="cls-1" d="M44.3,23.8v-3H47v.7H45.2v.4h1.6v.7H45.2v.5H47v.7Z" transform="translate(-3 -12.8)"/><path class="cls-1" d="M47.3,22.8h.9c0,.2.2.3.7.3s.6-.1.6-.3,0-.1-.3-.1h-.9q-.9-.2-.9-.9t1.5-.9,1.5.9h-.9c0-.1-.2-.2-.6-.2s-.6.1-.6.2.1.1.3.2h.9c.6.1,1,.4,1,.9s-.6,1.1-1.6,1.1S47.3,23.5,47.3,22.8Z" transform="translate(-3 -12.8)"/><path class="cls-1" d="M51.8,23.8V21.6H50.7v-.8h3.2v.8H52.7v2.2Z" transform="translate(-3 -12.8)"/><path class="cls-1" d="M56.2,23.8v-.5H54.7v.5h-1l.9-3h1.8l.9,3Zm-1.3-1.3h1l-.3-.9h-.4Z" transform="translate(-3 -12.8)"/><path class="cls-1" d="M58.1,23.8V21.6H56.9v-.8h3.2v.8H59v2.2Z" transform="translate(-3 -12.8)"/><path class="cls-1" d="M60.5,23.8v-3h2.7v.7H61.5v.4H63v.7H61.5v.5h1.7v.7Z" transform="translate(-3 -12.8)"/></svg>