<svg id="Layer_1" data-name="Layer 1" xmlns="http://www.w3.org/2000/svg" viewBox="0 0 55.75 17.79"><defs><style>.cls-1{opacity:0.96;}.cls-2{fill:#fff;}</style></defs><g class="cls-1"><path class="cls-2" d="M9.26,21.26V11.17l.17.09,1,.55,1.06.62,1.2.7.38.22a.09.09,0,0,0,.12,0l1.18-.68,1-.57.87-.5.79-.45h0V21.23l.18-.1.53-.31a.12.12,0,0,0,.07-.12V16.16a.11.11,0,0,0-.06-.11l-.4-.23s0,0,0-.06v-.92l2.2,1.29-.34.2c-.13.07-.26.14-.38.22s-.12.06-.18,0,0,0,0,0v4.59a.13.13,0,0,1-.07.13l-.9.52-.73.42-1.08.63-1.43.84-.84.48-.33.2h-.07l-1.27-.74-1.16-.68-1.11-.64-.72-.42L8,21.41l-.22-.13a.1.1,0,0,1-.06-.1c0-1.53,0-3.06,0-4.59v-.1l-.16.1s0,0-.06,0l-.78-.45,0,0,2.16-1.25s0,.05,0,.08v.81a.1.1,0,0,1-.06.1,2.61,2.61,0,0,0-.28.17s0,0,0,.08v4.64a.09.09,0,0,0,0,.09l.64.37ZM10,12.49v9.16a.16.16,0,0,0,.05.08l.94.55.91.53,1.16.67.27-.15,1-.57.67-.39,1.14-.66a.11.11,0,0,0,.05-.1V12.46l-3.11,1.81Z" transform="translate(-4.82 -8.45)"/></g><g class="cls-1"><path class="cls-2" d="M6.47,22.64l-.31-.11a1.84,1.84,0,0,1-.79-.62l-.09-.14a.1.1,0,0,1,0-.17l.41-.23,0,0A4.7,4.7,0,0,1,5.33,21a1.67,1.67,0,0,1-.45-.77A2.61,2.61,0,0,1,4.82,20c0-.07,0-.11.1-.12a1.81,1.81,0,0,1,.61-.06s0,0,.06,0a1.5,1.5,0,0,1-.15-.23,1.39,1.39,0,0,1-.24-.65c0-.15,0-.31,0-.46a1.66,1.66,0,0,1,0-.22.09.09,0,0,1,.1-.08l.41.08a.74.74,0,0,1,.14,0c0-.05,0-.1,0-.14a1.77,1.77,0,0,1,0-.65,1.72,1.72,0,0,1,.27-.64,1.24,1.24,0,0,1,.14-.18.09.09,0,0,1,.15,0,1.75,1.75,0,0,1,.66.79,1.83,1.83,0,0,1,.15.73,1.77,1.77,0,0,1-.17.78c-.05.1-.12.2-.18.3s0,.05,0,.07.08.24.11.37a1.35,1.35,0,0,1,0,.53s0,.07,0,.11,0,.12-.11.14a5.46,5.46,0,0,1,.27.48,2.9,2.9,0,0,1,.12.42.18.18,0,0,0,.08.11,1.77,1.77,0,0,1,.72.69.2.2,0,0,0,.1.08,1.78,1.78,0,0,1,.91.5.12.12,0,0,1,0,.17,2,2,0,0,1-.49.43,1.94,1.94,0,0,1-.66.24,1.72,1.72,0,0,1-.64,0,1.85,1.85,0,0,1-.78-.32A2.52,2.52,0,0,1,6.27,23a.12.12,0,0,1,0-.17Zm.11-1.56L6.66,21s0-.07,0-.11-.16-.21-.26-.31a1.35,1.35,0,0,0-.83-.39s-.08,0-.1.05a.14.14,0,0,0,0,.11,1.39,1.39,0,0,0,.29.35A1.5,1.5,0,0,0,6.58,21.08Zm1,2a1.47,1.47,0,0,0,.74-.17.14.14,0,0,0,.07-.11.12.12,0,0,0-.08-.11,1.36,1.36,0,0,0-.44-.11,2.36,2.36,0,0,0-.38,0,3,3,0,0,0-.42.14.13.13,0,0,0-.09.12c0,.07,0,.1.1.12A1.43,1.43,0,0,0,7.57,23.1ZM6.44,21.64l-.36.06s-.1,0-.1.09a.21.21,0,0,0,0,.11,1.54,1.54,0,0,0,.53.26,1.7,1.7,0,0,0,.71,0s.1,0,.11-.1,0-.1-.06-.13A1.59,1.59,0,0,0,6.44,21.64ZM6.3,17.82a1.52,1.52,0,0,0,.11.57l.14.25a.1.1,0,0,0,.18,0,1.19,1.19,0,0,0,.07-.27,1.21,1.21,0,0,0,0-.5,1.43,1.43,0,0,0-.21-.49.1.1,0,0,0-.18,0A1.34,1.34,0,0,0,6.3,17.82Zm-.52.87a.12.12,0,0,0-.12.15,1.59,1.59,0,0,0,.31.64,1.18,1.18,0,0,0,.46.34.11.11,0,0,0,.11,0,.18.18,0,0,0,0-.11.53.53,0,0,0,0-.12,1.37,1.37,0,0,0-.71-.87A.06.06,0,0,0,5.78,18.69Z" transform="translate(-4.82 -8.45)"/></g><g class="cls-1"><path class="cls-2" d="M19.79,22.53l.2.22a.12.12,0,0,1,0,.17,1.92,1.92,0,0,1-.76.46,1.64,1.64,0,0,1-.58.09,1.85,1.85,0,0,1-1.19-.41l-.29-.29a.1.1,0,0,1,0-.16,1.81,1.81,0,0,1,.73-.46l.23-.06a0,0,0,0,0,0,0,1.5,1.5,0,0,1,.39-.48c.11-.09.25-.17.37-.26a.09.09,0,0,0,0-.07,2,2,0,0,1,.35-.83l.08-.1c-.13,0-.13-.07-.15-.19a1.67,1.67,0,0,1,0-.63c0-.1.06-.2.09-.3a.11.11,0,0,0,0-.12,1.91,1.91,0,0,1-.26-.56,1.7,1.7,0,0,1-.06-.67,1.79,1.79,0,0,1,.17-.6,2,2,0,0,1,.39-.55,2.31,2.31,0,0,1,.24-.2.09.09,0,0,1,.15,0,2.48,2.48,0,0,1,.19.26,1.4,1.4,0,0,1,.22.54,2.7,2.7,0,0,1,0,.49c0,.11,0,.21,0,.33l.17-.05.37-.07c.06,0,.11,0,.12.1a1.81,1.81,0,0,1-.36,1.5l0,0h.1a2.32,2.32,0,0,1,.59.06c.08,0,.1.09.08.19a2,2,0,0,1-.26.67,2,2,0,0,1-.66.63l0,0,.3.16.17.11a.11.11,0,0,1,0,.16,1.84,1.84,0,0,1-.67.66,1.54,1.54,0,0,1-.46.19h0Zm-.45-.44a1.46,1.46,0,0,0,.88-.3.1.1,0,0,0,.06-.11.16.16,0,0,0-.09-.09.72.72,0,0,0-.21-.05,1.54,1.54,0,0,0-1.05.29.1.1,0,0,0-.05.11.12.12,0,0,0,.1.1ZM19.69,21a1.38,1.38,0,0,0,.49-.14,1.36,1.36,0,0,0,.6-.56.11.11,0,0,0,0-.11.17.17,0,0,0-.1-.06l-.13,0a1.48,1.48,0,0,0-.5.21,1.25,1.25,0,0,0-.46.48A.1.1,0,0,0,19.69,21ZM18.5,22.48a1.29,1.29,0,0,0-.56.12.18.18,0,0,0-.07.1.19.19,0,0,0,.05.1,1.26,1.26,0,0,0,.42.16,1.2,1.2,0,0,0,.5,0l.38-.11a.1.1,0,0,0,0-.19A1.37,1.37,0,0,0,18.5,22.48Zm2.11-3.79a.12.12,0,0,0-.18-.1,2.08,2.08,0,0,0-.34.24,1.35,1.35,0,0,0-.4.75.15.15,0,0,0,0,.11.09.09,0,0,0,.13,0,2,2,0,0,0,.19-.12,1.28,1.28,0,0,0,.44-.51C20.53,19,20.56,18.82,20.61,18.69Zm-.66-1a1.52,1.52,0,0,0-.07-.43.16.16,0,0,0-.09-.09.1.1,0,0,0-.12.06,2.81,2.81,0,0,0-.17.35,1.45,1.45,0,0,0,0,.85c0,.06.05.11.11.11s.09,0,.12-.07A1.46,1.46,0,0,0,20,17.71Z" transform="translate(-4.82 -8.45)"/></g><g class="cls-1"><path class="cls-2" d="M9.25,23.14c.22.13.42.25.63.36l.8.47.51.3.85.49.71.42.3.17h.06l.77-.45.71-.41,1.08-.63.77-.44c.15-.1.31-.19.47-.28l.05,0v.23c0,.2,0,.4,0,.6a.09.09,0,0,1-.06.09l-.7.41-.81.47-.71.42c-.26.14-.52.3-.77.45s-.5.28-.74.43a.18.18,0,0,1-.2,0l-1.14-.67-1.16-.66-.9-.53-.5-.29a.09.09,0,0,1,0-.05Z" transform="translate(-4.82 -8.45)"/></g><g class="cls-1"><path class="cls-2" d="M11.06,10.92V8.45l1.11.72L13,8.64c.1-.07.1-.07.21,0l.82.54,1-.66s0,.05,0,.07v2.26c0,.06,0,.08-.08.08H11.06Zm3.39-.52V9.62c-.13.09-.26.16-.37.25a.07.07,0,0,1-.09,0l-.81-.53a.12.12,0,0,0-.16,0l-.69.46c-.11.08-.2.1-.3,0h0l-.34-.23v.76c0,.08,0,.08.09.08h2.7Z" transform="translate(-4.82 -8.45)"/></g><g class="cls-1"><path class="cls-2" d="M11.06,12v-.71h4V12Z" transform="translate(-4.82 -8.45)"/></g><g class="cls-1"><path class="cls-2" d="M11.5,16.63a.44.44,0,0,1,0,.14c0,.47,0,.94,0,1.41a1.47,1.47,0,0,0,.18.68,1.68,1.68,0,0,0,.72.7,1.61,1.61,0,0,0,.53.15,1.68,1.68,0,0,0,.59,0,.7.7,0,0,0,.19-.06.08.08,0,0,0,0-.07c0-.34,0-.69,0-1H12.56v.62s0,.06,0,.07l-.07,0a4.64,4.64,0,0,1-.38-.39,1.09,1.09,0,0,1-.2-.7V15.6c0-.08,0-.16-.09-.2a.39.39,0,0,0-.15,0c-.06,0-.08,0-.08-.08a1,1,0,0,0,0-.17q0-.09.09-.09H12.8c.06,0,.08,0,.08.08a1.33,1.33,0,0,0,0,.2s0,.07-.06.07l-.18,0a.12.12,0,0,0-.08.09v.42c.25,0,.49,0,.73,0A2.23,2.23,0,0,1,14,16a2.51,2.51,0,0,1,.61.36,2.23,2.23,0,0,1,.66.86,2.19,2.19,0,0,1,.17.55,3.93,3.93,0,0,1,0,.49,1.33,1.33,0,0,1-.09.52,2.4,2.4,0,0,1-.41.73s0,.05-.06.07,0,0-.07,0,0,0,0-.07,0,0,0-.05V18.27a1.73,1.73,0,0,0-.12-.67,1.63,1.63,0,0,0-.51-.68,1.41,1.41,0,0,0-.69-.32,3.4,3.4,0,0,0-.45,0,1.42,1.42,0,0,0-.41.08.11.11,0,0,0-.09.12v1H13.8V17.2c0-.1,0-.12.12-.07a1.21,1.21,0,0,1,.47.58,1.43,1.43,0,0,1,.1.57v2.45c0,.13,0,.17.17.18h.05c.09,0,.1,0,.1.11v.14c0,.08,0,.1-.1.1H13.58c-.09,0-.1,0-.1-.1V21c0-.06,0-.08.07-.09h.12a.12.12,0,0,0,.12-.12c0-.14,0-.28,0-.42l-.38,0a2.07,2.07,0,0,1-.61,0,3.48,3.48,0,0,1-.41-.1,2.38,2.38,0,0,1-.68-.38,2.28,2.28,0,0,1-.54-.62,1.89,1.89,0,0,1-.23-.5,2.08,2.08,0,0,1-.1-.7,2,2,0,0,1,.16-.76,2.35,2.35,0,0,1,.38-.62Z" transform="translate(-4.82 -8.45)"/></g><g class="cls-1"><path class="cls-2" d="M12.22,21.26h-.57c-.08,0-.1,0-.1-.1V21c0-.08,0-.09.09-.09h0a.17.17,0,0,0,.19-.19v-.18c0-.07,0-.1.11-.07l.49.19a.13.13,0,0,1,.09.09c0,.12.07.16.18.16h0c.1,0,.11,0,.11.1v.15c0,.09,0,.1-.1.1Z" transform="translate(-4.82 -8.45)"/></g><g class="cls-1"><path class="cls-2" d="M14.15,15h.56c.09,0,.1,0,.1.11v.13c0,.09,0,.12-.11.11a.42.42,0,0,0-.15,0,.11.11,0,0,0-.06.11.74.74,0,0,1,0,.21c0,.09,0,.11-.11.08l-.52-.2a.17.17,0,0,1-.06-.08c0-.13-.08-.16-.21-.16s-.11,0-.11-.1v-.16c0-.08,0-.09.09-.09Z" transform="translate(-4.82 -8.45)"/></g><g class="cls-1"><path class="cls-2" d="M25.54,26l-.23-.7H23.82l-.23.7h-.48L24,23.26h1.1L26,26ZM24,24.89h1.21l-.4-1.2h-.41Z" transform="translate(-4.82 -8.45)"/><path class="cls-2" d="M29.58,23.26h.48L29.52,26h-.87l-.59-2.32H28L27.38,26h-.87L26,23.26h.47l.45,2.33H27l.59-2.33h.83L29,25.59h.12Z" transform="translate(-4.82 -8.45)"/><path class="cls-2" d="M31.91,23.2c1.07,0,1.58.45,1.58,1.43s-.51,1.44-1.58,1.44-1.58-.46-1.58-1.44S30.83,23.2,31.91,23.2Zm0,2.45a1.25,1.25,0,0,0,.85-.24,1,1,0,0,0,.26-.78,1,1,0,0,0-.26-.77,1.31,1.31,0,0,0-.85-.23,1.29,1.29,0,0,0-.85.23,1,1,0,0,0-.26.77,1,1,0,0,0,.26.78A1.23,1.23,0,0,0,31.91,25.65Z" transform="translate(-4.82 -8.45)"/><path class="cls-2" d="M36.27,23.26l-1.11,2.09V26H34.7v-.65l-1.12-2.1h.52l.78,1.51H35l.79-1.51Z" transform="translate(-4.82 -8.45)"/><path class="cls-2" d="M38.43,26l-.23-.7H36.7l-.23.7H36l.91-2.75H38L38.91,26Zm-1.58-1.12h1.21l-.4-1.2h-.41Z" transform="translate(-4.82 -8.45)"/><path class="cls-2" d="M41.32,23.26l-1.11,2.09V26h-.46v-.65l-1.12-2.1h.52l.78,1.51H40l.79-1.51Z" transform="translate(-4.82 -8.45)"/><path class="cls-2" d="M43.48,26l-.23-.7h-1.5l-.23.7H41L42,23.26h1.1L44,26ZM41.9,24.89h1.21l-.4-1.2H42.3Z" transform="translate(-4.82 -8.45)"/><path class="cls-2" d="M45.45,26V23.26h.47v2.33H47.4V26Z" transform="translate(-4.82 -8.45)"/><path class="cls-2" d="M50.12,26l-.23-.7h-1.5l-.23.7h-.48l.92-2.75h1.1L50.6,26Zm-1.58-1.12h1.21l-.4-1.2h-.41Z" transform="translate(-4.82 -8.45)"/><path class="cls-2" d="M52.26,24.59h1.61v.09c0,1-.51,1.39-1.55,1.39s-1.58-.46-1.58-1.44.52-1.43,1.56-1.43,1.38.32,1.49,1h-.47c-.1-.37-.39-.53-1-.53s-1.11.28-1.11,1a1,1,0,0,0,.26.78,1.22,1.22,0,0,0,.85.24c.7,0,1-.2,1.08-.63H52.26Z" transform="translate(-4.82 -8.45)"/><path class="cls-2" d="M55.8,23.2c1.08,0,1.58.45,1.58,1.43s-.5,1.44-1.58,1.44-1.58-.46-1.58-1.44S54.72,23.2,55.8,23.2Zm0,2.45a1.23,1.23,0,0,0,.85-.24,1,1,0,0,0,.26-.78,1,1,0,0,0-.26-.77,1.29,1.29,0,0,0-.85-.23,1.31,1.31,0,0,0-.85.23,1,1,0,0,0-.25.77,1,1,0,0,0,.25.78A1.25,1.25,0,0,0,55.8,25.65Z" transform="translate(-4.82 -8.45)"/><path class="cls-2" d="M57.72,25.1h.45c0,.4.25.55.79.55s.7-.15.7-.43-.13-.33-.41-.37l-.73-.12c-.5-.08-.72-.3-.72-.72s.39-.81,1.12-.81,1.09.27,1.15.89h-.46c0-.34-.24-.46-.7-.46s-.65.12-.65.37.14.27.4.31l.72.12c.51.08.74.33.74.78s-.41.86-1.17.86S57.75,25.77,57.72,25.1Z" transform="translate(-4.82 -8.45)"/></g><g class="cls-1"><path class="cls-2" d="M23.82,12.78c0-1.8,1-2.65,3.15-2.65s3.14.84,3.14,2.65-1,2.71-3.14,2.71S23.82,14.64,23.82,12.78ZM27,11.45c-1.12,0-1.58.38-1.58,1.33s.46,1.38,1.58,1.38,1.57-.4,1.57-1.38S28.1,11.45,27,11.45Z" transform="translate(-4.82 -8.45)"/><path class="cls-2" d="M34.37,15.36l-.92-2h-.64l-.93,2H30.2l1.23-2.6-1.12-2.5H32l.8,1.81h.71l.81-1.81h1.65l-1.12,2.51L36,15.36Z" transform="translate(-4.82 -8.45)"/><path class="cls-2" d="M36.6,15.36v-5.1h4.22v1.32H38.17v1h2.48v1.33H38.17v1.47Z" transform="translate(-4.82 -8.45)"/><path class="cls-2" d="M41.21,12.78c0-1.8,1-2.65,3.15-2.65s3.14.84,3.14,2.65-1,2.71-3.14,2.71S41.21,14.64,41.21,12.78Zm3.15-1.33c-1.12,0-1.58.38-1.58,1.33s.46,1.38,1.58,1.38,1.57-.4,1.57-1.38S45.49,11.45,44.36,11.45Z" transform="translate(-4.82 -8.45)"/><path class="cls-2" d="M53.42,15.36H51.48L50.15,14h-.53v1.35H48.09v-5.1h2.7c1.55,0,2.36.65,2.36,1.88a1.64,1.64,0,0,1-1.23,1.72Zm-3.8-3.8v1.17h1.17c.56,0,.84-.2.84-.59s-.28-.58-.84-.58Z" transform="translate(-4.82 -8.45)"/><path class="cls-2" d="M53.88,15.36v-5.1h2.7c2.23,0,3.27.79,3.27,2.5s-1,2.6-3.17,2.6ZM55.45,14h1.2c1.16,0,1.63-.36,1.63-1.26s-.49-1.17-1.7-1.17H55.45Z" transform="translate(-4.82 -8.45)"/></g><g class="cls-1"><path class="cls-2" d="M27.58,16.56h1.56v5.1H27.58v-2H25.5v2H23.93v-5.1H25.5v1.8h2.08Z" transform="translate(-4.82 -8.45)"/><path class="cls-2" d="M29.92,21.66v-5.1h4.39V17.8H31.49v.66h2.57v1.23H31.49v.73h2.86v1.24Z" transform="translate(-4.82 -8.45)"/><path class="cls-2" d="M35.08,21.66v-5.1h1.57v5.1Z" transform="translate(-4.82 -8.45)"/><path class="cls-2" d="M40.18,18.57h3.29V19c0,1.9-1,2.82-3,2.82s-3.18-.86-3.18-2.72,1-2.64,3.14-2.64c1.78,0,2.69.57,2.91,1.71H41.64a.63.63,0,0,0-.38-.32,3.27,3.27,0,0,0-.86-.08c-1.13,0-1.59.38-1.59,1.33s.47,1.39,1.6,1.39c.88,0,1.36-.21,1.45-.64H40.18Z" transform="translate(-4.82 -8.45)"/><path class="cls-2" d="M47.71,16.56h1.57v5.1H47.71v-2H45.63v2H44.06v-5.1h1.57v1.8h2.08Z" transform="translate(-4.82 -8.45)"/><path class="cls-2" d="M51.67,21.66V17.88H49.86V16.56h5.2v1.32H53.25v3.78Z" transform="translate(-4.82 -8.45)"/><path class="cls-2" d="M55.33,20h1.46c0,.38.38.54,1.23.54.67,0,1-.14,1-.44s-.15-.29-.5-.32l-1.46-.14c-1.13-.09-1.58-.61-1.58-1.48,0-1.08.87-1.68,2.49-1.68s2.36.56,2.45,1.68H59c-.08-.28-.34-.39-1-.39s-.91.12-.91.35.08.24.39.27l1.47.15c1.12.12,1.69.67,1.69,1.52,0,1.15-.93,1.78-2.6,1.78S55.4,21.18,55.33,20Z" transform="translate(-4.82 -8.45)"/></g></svg>