<svg id="Layer_1" data-name="Layer 1" xmlns="http://www.w3.org/2000/svg" viewBox="0 0 72.33 23.36"><defs><style>.cls-1,.cls-12,.cls-14,.cls-2{fill:#fff;opacity:0.96;}.cls-2{font-size:3.45px;font-family:GrandisExtended-Medium, Grandis Extended;font-weight:500;}.cls-3{letter-spacing:-0.01em;}.cls-4{letter-spacing:-0.09em;}.cls-5{letter-spacing:0.01em;}.cls-6{letter-spacing:-0.07em;}.cls-7{letter-spacing:-0.01em;}.cls-8{letter-spacing:-0.04em;}.cls-9{letter-spacing:-0.11em;}.cls-10{letter-spacing:0.02em;}.cls-11{letter-spacing:-0.03em;}.cls-12{font-size:10.03px;letter-spacing:-0.04em;}.cls-12,.cls-14{font-family:GrandisExtended-Black, Grandis Extended;font-weight:800;}.cls-13{letter-spacing:0em;}.cls-14{font-size:9.51px;}.cls-15{letter-spacing:0.01em;}</style></defs><path class="cls-1" d="M17.11,32.76v-13l.23.13,1.21.7,1.36.8,1.56.9.48.28a.14.14,0,0,0,.16,0l1.52-.88L24.86,21,26,20.32l1-.58,0,0v13l.23-.13.68-.39A.17.17,0,0,0,28,32V26.19a.13.13,0,0,0-.08-.14l-.51-.3a.1.1,0,0,1-.05-.08c0-.38,0-.77,0-1.17l2.84,1.65-.43.26c-.17.09-.34.18-.5.28s-.15.08-.23,0h0v5.91a.15.15,0,0,1-.09.16l-1.16.67-.94.55-1.39.81-1.84,1.07-1.08.62-.43.26a.14.14,0,0,1-.09,0l-1.63-1-1.49-.86-1.43-.83-.93-.55-1-.58-.28-.16a.14.14,0,0,1-.07-.14v-6l-.22.12a.11.11,0,0,1-.08,0l-1-.58s0,0,0,0l2.78-1.62c0,.05,0,.08,0,.11v1.05a.13.13,0,0,1-.08.13l-.36.21a.1.1,0,0,0-.06.1v6a.13.13,0,0,0,.07.12l.82.47Zm1-11.3V33.19a.24.24,0,0,0,.07.17c.4.24.8.48,1.21.71l1.17.68,1.49.87.36-.21,1.25-.72.87-.51L26,33.33A.12.12,0,0,0,26,33.2V21.54a.49.49,0,0,0,0-.11l-4,2.32Z" transform="translate(-11.4 -16.27)"/><path class="cls-1" d="M13.52,34.54l-.4-.15a2.33,2.33,0,0,1-1-.8L12,33.41q-.09-.13,0-.21l.53-.31.06,0c-.19-.16-.38-.3-.55-.47a2.09,2.09,0,0,1-.58-1,2.21,2.21,0,0,1-.08-.35.14.14,0,0,1,.13-.16,2.58,2.58,0,0,1,.78-.07h.08c-.07-.1-.14-.2-.2-.3a1.89,1.89,0,0,1-.3-.83q0-.3,0-.6a.92.92,0,0,1,.05-.28.11.11,0,0,1,.12-.1l.53.09.18.06c0-.06,0-.12,0-.18a2.88,2.88,0,0,1,0-.83A2.28,2.28,0,0,1,13.1,27c.05-.08.12-.16.18-.24a.13.13,0,0,1,.2,0,2.41,2.41,0,0,1,1,1.95,2.23,2.23,0,0,1-.23,1c-.06.13-.15.26-.22.39a.14.14,0,0,0,0,.09c0,.16.1.31.13.47a1.78,1.78,0,0,1,0,.69c0,.05,0,.09,0,.14s0,.16-.15.18c.11.2.24.4.34.62a3.38,3.38,0,0,1,.17.54.18.18,0,0,0,.09.14,2.2,2.2,0,0,1,.93.88.23.23,0,0,0,.13.11,2.24,2.24,0,0,1,1.17.65.14.14,0,0,1,0,.21,2.36,2.36,0,0,1-.63.55,2.42,2.42,0,0,1-.86.32,2.31,2.31,0,0,1-.83,0,2.42,2.42,0,0,1-1-.42,2.69,2.69,0,0,1-.32-.27.15.15,0,0,1,0-.22Zm.14-2a.48.48,0,0,0,.11-.08s0-.08,0-.13a4.12,4.12,0,0,0-.33-.4,1.74,1.74,0,0,0-1.06-.51.19.19,0,0,0-.14.07.17.17,0,0,0,0,.14,1.74,1.74,0,0,0,.36.45A1.93,1.93,0,0,0,13.66,32.52Zm1.28,2.6a1.81,1.81,0,0,0,1-.22.16.16,0,0,0,.1-.14.15.15,0,0,0-.11-.13,1.7,1.7,0,0,0-1.06-.12,4.88,4.88,0,0,0-.54.18.16.16,0,0,0-.12.16.17.17,0,0,0,.13.14A1.63,1.63,0,0,0,14.94,35.12Zm-1.45-1.87-.47.07a.15.15,0,0,0-.13.12.16.16,0,0,0,.06.13,1.74,1.74,0,0,0,.68.34,2,2,0,0,0,.91,0,.18.18,0,0,0,.15-.13.16.16,0,0,0-.09-.16A1.94,1.94,0,0,0,13.49,33.25Zm-.18-4.93a1.78,1.78,0,0,0,.14.74,2,2,0,0,0,.18.32.13.13,0,0,0,.23,0A2,2,0,0,0,14,29a1.72,1.72,0,0,0,0-.64,1.88,1.88,0,0,0-.26-.64.14.14,0,0,0-.24,0A1.6,1.6,0,0,0,13.31,28.32Zm-.68,1.13a.15.15,0,0,0-.15.19,1.85,1.85,0,0,0,.4.82,1.63,1.63,0,0,0,.59.45.17.17,0,0,0,.14,0,.21.21,0,0,0,0-.14.42.42,0,0,0,0-.15,1.78,1.78,0,0,0-.91-1.13A.12.12,0,0,0,12.63,29.45Z" transform="translate(-11.4 -16.27)"/><path class="cls-1" d="M30.66,34.39l.26.28a.15.15,0,0,1,0,.22,2.42,2.42,0,0,1-3.25.18,4.31,4.31,0,0,1-.37-.37.14.14,0,0,1,0-.21,2.33,2.33,0,0,1,.95-.58l.29-.08,0,0a1.65,1.65,0,0,1,.49-.62c.15-.12.32-.22.48-.33a.2.2,0,0,0,.07-.09,2.52,2.52,0,0,1,.45-1.08l.09-.12c-.15,0-.16-.09-.19-.25a2.21,2.21,0,0,1,0-.81,1.94,1.94,0,0,1,.12-.39.14.14,0,0,0,0-.15,2.71,2.71,0,0,1-.34-.73,2.45,2.45,0,0,1-.07-.85,2.38,2.38,0,0,1,.21-.78,2.57,2.57,0,0,1,.51-.71,3.61,3.61,0,0,1,.3-.25.13.13,0,0,1,.2,0c.09.11.17.22.25.34a1.94,1.94,0,0,1,.28.7,4.34,4.34,0,0,1,.05.63c0,.13,0,.27,0,.41l.21-.06.47-.09c.09,0,.14,0,.16.13a2.29,2.29,0,0,1,0,1,2.37,2.37,0,0,1-.45.93s0,0,0,.05l.12,0a3.22,3.22,0,0,1,.76.08c.09,0,.13.12.1.25a2.76,2.76,0,0,1-.34.86,2.53,2.53,0,0,1-.85.81l0,0,.39.21.22.14a.15.15,0,0,1,0,.21,2.41,2.41,0,0,1-.86.85,1.84,1.84,0,0,1-.6.24h0Zm-.56-.56a2,2,0,0,0,1.12-.39c.05,0,.1-.08.07-.14a.18.18,0,0,0-.1-.12l-.27-.06a1.81,1.81,0,0,0-.8.08,1.93,1.93,0,0,0-.55.29.14.14,0,0,0-.07.14.15.15,0,0,0,.13.13Zm.45-1.46a2,2,0,0,0,.62-.18,1.81,1.81,0,0,0,.78-.72.2.2,0,0,0,0-.15.26.26,0,0,0-.14-.07l-.16,0a2.18,2.18,0,0,0-.65.27,2.05,2.05,0,0,0-.59.62A.14.14,0,0,0,30.55,32.37Zm-1.54,2a1.72,1.72,0,0,0-.72.15.21.21,0,0,0-.09.13.15.15,0,0,0,.07.12,1.48,1.48,0,0,0,.54.21,1.53,1.53,0,0,0,.64,0l.48-.14a.14.14,0,0,0,0-.25A1.83,1.83,0,0,0,29,34.33Zm2.72-4.88c0-.12-.13-.2-.24-.13a2.61,2.61,0,0,0-.43.31,1.69,1.69,0,0,0-.52,1,.17.17,0,0,0,0,.14.12.12,0,0,0,.16,0c.08-.05.17-.09.25-.15a1.56,1.56,0,0,0,.56-.66A4.29,4.29,0,0,0,31.73,29.45Zm-.85-1.26a1.89,1.89,0,0,0-.1-.56.22.22,0,0,0-.12-.11c-.06,0-.11,0-.14.08a2.26,2.26,0,0,0-.22.44,1.8,1.8,0,0,0,0,1.1c0,.07.06.14.14.14a.15.15,0,0,0,.15-.1A1.9,1.9,0,0,0,30.88,28.19Z" transform="translate(-11.4 -16.27)"/><path class="cls-1" d="M17.1,35.18l.81.47,1,.6.64.38c.37.21.74.42,1.1.64l.92.53L22,38h.08l1-.58.92-.53,1.39-.81,1-.57.61-.35.07,0V36.2a.12.12,0,0,1-.06.13l-.91.52-1,.61L24.1,38l-1,.58c-.32.19-.64.36-.95.55a.21.21,0,0,1-.26,0l-1.47-.86L19,37.4l-1.17-.69-.64-.36s0,0,0-.06Z" transform="translate(-11.4 -16.27)"/><path class="cls-1" d="M19.44,19.44V16.27l1.42.92,1.06-.68c.14-.09.14-.1.27,0l1.07.69,1.31-.85s0,.06,0,.09v2.91c0,.08,0,.1-.1.1h-5Zm4.35-.66v-1l-.48.31a.09.09,0,0,1-.11,0l-1-.68a.17.17,0,0,0-.21,0l-.88.59c-.14.1-.26.14-.4,0s0,0,0,0l-.44-.28v1c0,.1,0,.1.11.1h3.47Z" transform="translate(-11.4 -16.27)"/><path class="cls-1" d="M19.43,20.79v-.92h5.15v.92Z" transform="translate(-11.4 -16.27)"/><path class="cls-1" d="M20,26.8A.74.74,0,0,1,20,27c0,.6,0,1.2,0,1.81a1.85,1.85,0,0,0,.24.88,2.08,2.08,0,0,0,.92.89,2.24,2.24,0,0,0,.68.21,2.75,2.75,0,0,0,.76,0l.24-.08a.13.13,0,0,0,.06-.09V29.22H21.36V30s0,.08-.05.08-.07,0-.09,0a5.78,5.78,0,0,1-.49-.5,1.42,1.42,0,0,1-.26-.9c0-1.06,0-2.13,0-3.19,0-.1,0-.21-.12-.26a.65.65,0,0,0-.2,0c-.07,0-.1,0-.09-.1v-.23a.1.1,0,0,1,.11-.11h1.49c.07,0,.1,0,.1.1v.26a.08.08,0,0,1-.08.09l-.23,0a.18.18,0,0,0-.09.12c0,.18,0,.37,0,.54.32,0,.63-.06.94-.06a2.66,2.66,0,0,1,1,.2,2.94,2.94,0,0,1,.79.45,3,3,0,0,1,.85,1.11,2.65,2.65,0,0,1,.22.71,4.43,4.43,0,0,1,0,.63,1.93,1.93,0,0,1-.12.67,3.09,3.09,0,0,1-.52.94.73.73,0,0,1-.08.09s-.07.05-.09,0,0-.06-.06-.09V28.91a2.26,2.26,0,0,0-.15-.86,2.08,2.08,0,0,0-.66-.89,2,2,0,0,0-.89-.41,5.49,5.49,0,0,0-.58,0,2,2,0,0,0-.53.1.15.15,0,0,0-.11.15v1.31H23v-.75c0-.12.07-.16.17-.09a1.64,1.64,0,0,1,.6.75,1.85,1.85,0,0,1,.13.73v3.15c0,.17,0,.22.21.23h.07c.11,0,.13,0,.13.14v.18c0,.12,0,.14-.13.14H22.68c-.12,0-.14,0-.14-.14a1.33,1.33,0,0,0,0-.2c0-.08,0-.11.1-.12h.15c.1,0,.16-.06.16-.16s0-.35,0-.54l-.49.06a2.5,2.5,0,0,1-.77,0,3.13,3.13,0,0,1-.53-.12,2.75,2.75,0,0,1-.88-.5,3,3,0,0,1-.7-.79,2.87,2.87,0,0,1-.42-1.55,2.72,2.72,0,0,1,.21-1,3.13,3.13,0,0,1,.49-.8A.56.56,0,0,1,20,26.8Z" transform="translate(-11.4 -16.27)"/><path class="cls-1" d="M20.92,32.76h-.73c-.11,0-.13,0-.12-.13v-.21c0-.1,0-.11.11-.12h.05c.17,0,.24-.07.25-.24v-.23c0-.09.05-.13.13-.09l.64.24c.06,0,.1.06.11.12s.09.2.24.2h0c.11,0,.13,0,.13.14v.19c0,.11,0,.13-.13.13Z" transform="translate(-11.4 -16.27)"/><path class="cls-1" d="M23.4,24.74h.72c.13,0,.14,0,.14.14v.17c0,.11,0,.14-.14.14a.45.45,0,0,0-.19,0c-.06,0-.08.07-.08.14v.27c0,.11-.05.14-.15.11L23,25.5a.2.2,0,0,1-.08-.1c-.06-.18-.1-.22-.28-.21s-.14,0-.14-.13v-.21c0-.1,0-.11.12-.11Z" transform="translate(-11.4 -16.27)"/><text class="cls-2" transform="translate(23.97 22.49) scale(0.94 1)">E<tspan class="cls-3" x="2.43" y="0">S</tspan><tspan class="cls-4" x="4.94" y="0">TA</tspan><tspan class="cls-5" x="9.49" y="0">T</tspan><tspan x="11.87" y="0">E </tspan><tspan class="cls-6" x="15.33" y="0">A</tspan><tspan class="cls-7" x="17.93" y="0">W</tspan><tspan class="cls-8" x="21.92" y="0">O</tspan><tspan class="cls-9" x="25.03" y="0">YAY</tspan><tspan x="31.92" y="0">A </tspan><tspan class="cls-10" x="35.8" y="0">L</tspan><tspan class="cls-11" x="38.07" y="0">A</tspan><tspan x="40.8" y="0">GOS</tspan></text><text class="cls-12" transform="translate(23.2 10.33) scale(0.93 1)">O<tspan class="cls-13" x="9.34" y="0">XFORD</tspan></text><text class="cls-14" transform="translate(23.46 18.33) scale(0.94 1)">HEIG<tspan class="cls-15" x="27.83" y="0">H</tspan><tspan x="36.22" y="0">TS</tspan></text></svg>